<?xml version="1.0" encoding="UTF-8" standalone="no"?>
<!-- Created with Inkscape (http://www.inkscape.org/) -->

<svg
   width="67.814293mm"
   height="27.597637mm"
   viewBox="0 0 67.814293 27.597637"
   version="1.1"
   id="svg1"
   inkscape:version="1.3.2 (091e20e, 2023-11-25, custom)"
   sodipodi:docname="cansat logo.svg"
   xmlns:inkscape="http://www.inkscape.org/namespaces/inkscape"
   xmlns:sodipodi="http://sodipodi.sourceforge.net/DTD/sodipodi-0.dtd"
   xmlns="http://www.w3.org/2000/svg"
   xmlns:svg="http://www.w3.org/2000/svg">
  <sodipodi:namedview
     id="namedview1"
     pagecolor="#ffffff"
     bordercolor="#666666"
     borderopacity="1.0"
     inkscape:showpageshadow="2"
     inkscape:pageopacity="0.0"
     inkscape:pagecheckerboard="0"
     inkscape:deskcolor="#d1d1d1"
     inkscape:document-units="mm"
     inkscape:zoom="2.0000001"
     inkscape:cx="462.74998"
     inkscape:cy="553.74997"
     inkscape:window-width="1281"
     inkscape:window-height="1041"
     inkscape:window-x="630"
     inkscape:window-y="0"
     inkscape:window-maximized="0"
     inkscape:current-layer="layer1" />
  <defs
     id="defs1">
    <inkscape:path-effect
       effect="copy_rotate"
       starting_point="117.99746,164.96205"
       origin="114.9517,164.96205"
       id="path-effect495"
       is_visible="true"
       lpeversion="1.2"
       lpesatellites=""
       method="normal"
       num_copies="6"
       starting_angle="0"
       rotation_angle="60"
       gap="-0.01"
       copies_to_360="true"
       mirror_copies="false"
       split_items="false"
       link_styles="false" />
    <inkscape:path-effect
       effect="copy_rotate"
       starting_point="117.99746,164.96205"
       origin="114.9517,164.96205"
       id="path-effect493"
       is_visible="true"
       lpeversion="1.2"
       lpesatellites=""
       method="normal"
       num_copies="6"
       starting_angle="0"
       rotation_angle="60"
       gap="-0.01"
       copies_to_360="true"
       mirror_copies="false"
       split_items="false"
       link_styles="false" />
    <inkscape:path-effect
       effect="copy_rotate"
       starting_point="117.99746,164.96205"
       origin="114.9517,164.96205"
       id="path-effect491"
       is_visible="true"
       lpeversion="1.2"
       lpesatellites=""
       method="normal"
       num_copies="6"
       starting_angle="0"
       rotation_angle="60"
       gap="-0.01"
       copies_to_360="true"
       mirror_copies="false"
       split_items="false"
       link_styles="false" />
    <inkscape:path-effect
       effect="copy_rotate"
       starting_point="117.99746,164.96205"
       origin="114.9517,164.96205"
       id="path-effect489"
       is_visible="true"
       lpeversion="1.2"
       lpesatellites=""
       method="normal"
       num_copies="6"
       starting_angle="0"
       rotation_angle="60"
       gap="-0.01"
       copies_to_360="true"
       mirror_copies="false"
       split_items="false"
       link_styles="false" />
    <inkscape:path-effect
       effect="copy_rotate"
       starting_point="117.99746,164.96205"
       origin="114.9517,164.96205"
       id="path-effect487"
       is_visible="true"
       lpeversion="1.2"
       lpesatellites=""
       method="normal"
       num_copies="6"
       starting_angle="0"
       rotation_angle="60"
       gap="-0.01"
       copies_to_360="true"
       mirror_copies="false"
       split_items="false"
       link_styles="false" />
    <inkscape:path-effect
       effect="copy_rotate"
       starting_point="117.99746,164.96205"
       origin="114.9517,164.96205"
       id="path-effect485"
       is_visible="true"
       lpeversion="1.2"
       lpesatellites=""
       method="normal"
       num_copies="6"
       starting_angle="0"
       rotation_angle="60"
       gap="-0.01"
       copies_to_360="true"
       mirror_copies="false"
       split_items="false"
       link_styles="false" />
    <clipPath
       clipPathUnits="userSpaceOnUse"
       id="clipPath746">
      <rect
         style="fill:#501627;fill-opacity:1;stroke:none;stroke-width:0.464999;stroke-linecap:square;stroke-linejoin:round;stroke-miterlimit:9.3;stroke-dasharray:none;stroke-dashoffset:6.04726;stroke-opacity:1;paint-order:stroke markers fill"
         id="rect747"
         width="203.85759"
         height="82.961632"
         x="6.806313"
         y="106.35898"
         ry="1.9194208"
         inkscape:export-filename="BeanSat\BeanSat.github.io\images\icon.svg"
         inkscape:export-xdpi="345"
         inkscape:export-ydpi="345"
         transform="rotate(-17.478225)"
         d="M 8.7257339,106.35898 H 208.74448 c 1.06336,0 1.91942,0.85606 1.91942,1.91942 v 79.12279 c 0,1.06336 -0.85606,1.91942 -1.91942,1.91942 H 8.7257339 c -1.0633592,0 -1.9194209,-0.85606 -1.9194209,-1.91942 V 108.2784 c 0,-1.06336 0.8560617,-1.91942 1.9194209,-1.91942 z M 11.086968,227.6549 111.09634,54.433582 c 0.53168,-0.920896 1.70108,-1.234236 2.62198,-0.702556 l 68.52235,39.561395 c 0.92089,0.531679 1.23423,1.701081 0.70255,2.621977 L 82.933849,269.13572 c -0.53168,0.92089 -1.701082,1.23423 -2.621978,0.70255 L 11.789525,230.27688 C 10.868629,229.7452 10.555289,228.5758 11.086968,227.6549 Z M 117.31293,286.25797 17.30356,113.03665 c -0.531679,-0.92089 -0.218339,-2.09029 0.702557,-2.62197 L 86.528463,70.853281 c 0.920896,-0.531679 2.090298,-0.218339 2.621978,0.702557 L 189.15981,244.77716 c 0.53168,0.92089 0.21834,2.09029 -0.70255,2.62197 l -68.52235,39.5614 c -0.92089,0.53168 -2.0903,0.21834 -2.62198,-0.70256 z M 221.17767,223.56512 H 21.158918 c -1.063359,0 -1.919421,-0.85606 -1.919421,-1.91942 v -79.12279 c 0,-1.06336 0.856062,-1.91942 1.919421,-1.91942 H 221.17767 c 1.06336,0 1.91942,0.85606 1.91942,1.91942 v 79.12279 c 0,1.06336 -0.85606,1.91942 -1.91942,1.91942 z M 218.81643,102.2692 118.80706,275.49052 c -0.53168,0.92089 -1.70108,1.23423 -2.62198,0.70255 L 47.662734,236.63168 C 46.741838,236.1 46.428498,234.9306 46.960177,234.0097 L 146.96955,60.788385 c 0.53168,-0.920896 1.70108,-1.234237 2.62198,-0.702557 l 68.52235,39.561395 c 0.92089,0.531677 1.23423,1.701077 0.70255,2.621977 z M 112.59047,43.666129 212.59984,216.88745 c 0.53168,0.92089 0.21834,2.09029 -0.70256,2.62197 l -68.52234,39.5614 c -0.9209,0.53168 -2.0903,0.21834 -2.62198,-0.70256 L 40.743585,85.146945 c -0.531679,-0.920896 -0.218339,-2.090298 0.702557,-2.621978 L 109.96849,42.963572 c 0.92089,-0.531679 2.0903,-0.218339 2.62198,0.702557 z" />
    </clipPath>
    <clipPath
       clipPathUnits="userSpaceOnUse"
       id="clipPath747">
      <rect
         style="fill:#501627;fill-opacity:1;stroke:none;stroke-width:0.464999;stroke-linecap:square;stroke-linejoin:round;stroke-miterlimit:9.3;stroke-dasharray:none;stroke-dashoffset:6.04726;stroke-opacity:1;paint-order:stroke markers fill"
         id="rect748"
         width="134.6694"
         height="54.804893"
         x="154.78612"
         y="-195.75356"
         ry="1.2679796"
         inkscape:export-filename="BeanSat\BeanSat.github.io\images\icon.svg"
         inkscape:export-xdpi="345"
         inkscape:export-ydpi="345"
         transform="rotate(85.334309)" />
    </clipPath>
    <clipPath
       clipPathUnits="userSpaceOnUse"
       id="clipPath748">
      <rect
         style="fill:#501627;fill-opacity:1;stroke:none;stroke-width:0.464999;stroke-linecap:square;stroke-linejoin:round;stroke-miterlimit:9.3;stroke-dasharray:none;stroke-dashoffset:6.04726;stroke-opacity:1;paint-order:stroke markers fill"
         id="rect749"
         width="203.8576"
         height="82.961632"
         x="-196.15785"
         y="1.1061617"
         ry="1.919421"
         inkscape:export-filename="BeanSat\BeanSat.github.io\images\icon.svg"
         inkscape:export-xdpi="345"
         inkscape:export-ydpi="345"
         transform="rotate(-107.01833)"
         d="M -194.23843,1.1061617 H 5.7803319 c 1.0633592,0 1.9194209,0.8560618 1.9194209,1.919421 V 82.148373 c 0,1.063359 -0.8560617,1.91942 -1.9194209,1.91942 H -194.23843 c -1.06336,0 -1.91942,-0.856061 -1.91942,-1.91942 V 3.0255827 c 0,-1.0633592 0.85606,-1.919421 1.91942,-1.919421 z m 12.6917,349.6944483 100.009384,-173.22133 c 0.53168,-0.92089 1.701082,-1.23423 2.621978,-0.70255 l 68.522346,39.56139 c 0.920896,0.53168 1.2342364,1.70108 0.7025568,2.62198 L -109.69985,392.28143 c -0.53168,0.9209 -1.70108,1.23424 -2.62197,0.70256 l -68.52235,-39.5614 c -0.9209,-0.53168 -1.23424,-1.70108 -0.70256,-2.62198 z M 127.6434,514.6565 27.634022,341.43517 c -0.531679,-0.92089 -0.218339,-2.0903 0.702557,-2.62198 L 96.858925,299.2518 c 0.920896,-0.53168 2.090298,-0.21834 2.621978,0.70256 L 199.49028,473.17569 c 0.53168,0.92089 0.21834,2.09029 -0.70255,2.62197 l -68.52235,39.5614 c -0.92089,0.53168 -2.0903,0.21834 -2.62198,-0.70256 z M 424.14183,328.81794 H 224.12307 c -1.06336,0 -1.91942,-0.85606 -1.91942,-1.91942 v -79.12279 c 0,-1.06336 0.85606,-1.91942 1.91942,-1.91942 h 200.01876 c 1.06336,0 1.91942,0.85606 1.91942,1.91942 v 79.12279 c 0,1.06336 -0.85606,1.91942 -1.91942,1.91942 z M 411.45013,-20.876514 311.44075,152.34482 c -0.53168,0.92089 -1.70109,1.23423 -2.62198,0.70255 l -68.52235,-39.56139 c -0.92089,-0.53168 -1.23423,-1.70108 -0.70255,-2.62198 L 339.60325,-62.35733 c 0.53168,-0.920896 1.70108,-1.234236 2.62197,-0.702557 l 68.52235,39.561395 c 0.9209,0.53168 1.23424,1.701082 0.70256,2.621978 z M 102.26,-184.7324 202.26938,-11.511072 c 0.53168,0.920896 0.21834,2.0902979 -0.70256,2.6219775 L 133.04447,30.6723 c -0.92089,0.53168 -2.09029,0.21834 -2.62197,-0.702556 L 30.413116,-143.25159 c -0.53168,-0.92089 -0.21834,-2.09029 0.702556,-2.62197 l 68.522346,-39.5614 c 0.920892,-0.53168 2.090302,-0.21834 2.621982,0.70256 z" />
    </clipPath>
    <clipPath
       clipPathUnits="userSpaceOnUse"
       id="clipPath749">
      <rect
         style="fill:#501627;fill-opacity:1;stroke:none;stroke-width:0.464999;stroke-linecap:square;stroke-linejoin:round;stroke-miterlimit:9.3;stroke-dasharray:none;stroke-dashoffset:6.04726;stroke-opacity:1;paint-order:stroke markers fill"
         id="rect750"
         width="203.8576"
         height="82.961632"
         x="-77.549461"
         y="190.72653"
         ry="1.919421"
         inkscape:export-filename="BeanSat\BeanSat.github.io\images\icon.svg"
         inkscape:export-xdpi="345"
         inkscape:export-ydpi="345"
         transform="rotate(-26.224067)"
         d="m -75.63004,190.72653 h 200.01876 c 1.06336,0 1.91942,0.85606 1.91942,1.91942 v 79.12279 c 0,1.06336 -0.85606,1.91942 -1.91942,1.91942 H -75.63004 c -1.06336,0 -1.919421,-0.85606 -1.919421,-1.91942 v -79.12279 c 0,-1.06336 0.856061,-1.91942 1.919421,-1.91942 z M 41.973526,342.89292 141.98291,169.67159 c 0.53168,-0.9209 1.70108,-1.23424 2.62198,-0.70256 l 68.52234,39.5614 c 0.9209,0.53168 1.23424,1.70108 0.70256,2.62198 L 113.82041,384.37374 c -0.53168,0.92089 -1.70109,1.23423 -2.62198,0.70255 L 42.676083,345.5149 c -0.920897,-0.53168 -1.234237,-1.70108 -0.702557,-2.62198 z M 232.55527,317.12844 132.54588,143.90711 c -0.53168,-0.9209 -0.21833,-2.0903 0.70256,-2.62198 l 68.52235,-39.5614 c 0.92089,-0.53167 2.0903,-0.21833 2.62198,0.70256 l 100.00938,173.22133 c 0.53168,0.9209 0.21834,2.0903 -0.70256,2.62198 l -68.52235,39.56139 c -0.92089,0.53168 -2.09029,0.21834 -2.62197,-0.70255 z M 305.53344,139.19757 H 105.51468 c -1.06336,0 -1.91942,-0.85606 -1.91942,-1.91942 V 58.155357 c 0,-1.063359 0.85606,-1.919421 1.91942,-1.919421 h 200.01876 c 1.06336,0 1.91942,0.856062 1.91942,1.919421 v 79.122793 c 0,1.06336 -0.85606,1.91942 -1.91942,1.91942 z M 187.92987,-12.96882 87.920493,160.25251 c -0.53168,0.9209 -1.701082,1.23424 -2.621978,0.70256 l -68.522346,-39.5614 c -0.920896,-0.53168 -1.234237,-1.70108 -0.702557,-2.62198 L 116.08299,-54.449636 c 0.53168,-0.920896 1.70109,-1.234236 2.62198,-0.702556 l 68.52235,39.561395 c 0.92089,0.531679 1.23423,1.701081 0.70255,2.621977 z M -2.6518661,12.795662 97.357515,186.01699 c 0.53168,0.9209 0.21834,2.0903 -0.702556,2.62198 l -68.522346,39.5614 c -0.920897,0.53167 -2.090299,0.21833 -2.621978,-0.70256 L -74.498747,54.276478 C -75.030426,53.355582 -74.717086,52.18618 -73.79619,51.6545 L -5.2738439,12.093105 c 0.9208961,-0.531679 2.0902982,-0.218339 2.6219778,0.702557 z" />
    </clipPath>
    <clipPath
       clipPathUnits="userSpaceOnUse"
       id="clipPath750">
      <rect
         style="fill:#501627;fill-opacity:1;stroke:none;stroke-width:0.464999;stroke-linecap:square;stroke-linejoin:round;stroke-miterlimit:9.3;stroke-dasharray:none;stroke-dashoffset:6.04726;stroke-opacity:1;paint-order:stroke markers fill"
         id="rect751"
         width="203.85759"
         height="82.961632"
         x="-73.900009"
         y="161.44397"
         ry="1.919421"
         inkscape:export-filename="BeanSat\BeanSat.github.io\images\icon.svg"
         inkscape:export-xdpi="345"
         inkscape:export-ydpi="345"
         d="M -71.980588,161.44397 H 128.03816 c 1.06336,0 1.91942,0.85606 1.91942,1.91942 v 79.12279 c 0,1.06336 -0.85606,1.91942 -1.91942,1.91942 H -71.980588 c -1.063359,0 -1.919421,-0.85606 -1.919421,-1.91942 v -79.12279 c 0,-1.06336 0.856062,-1.91942 1.919421,-1.91942 z M 18.438809,325.09112 118.44818,151.8698 c 0.53168,-0.92089 1.70108,-1.23423 2.62198,-0.70255 l 68.52235,39.56139 c 0.92089,0.53168 1.23423,1.70108 0.70255,2.62198 L 90.28569,366.57194 c -0.53168,0.92089 -1.701082,1.23423 -2.621978,0.70255 L 19.141366,327.7131 c -0.920896,-0.53168 -1.234237,-1.70108 -0.702557,-2.62198 z M 205.3711,328.6092 105.36172,155.38788 c -0.53168,-0.92089 -0.21834,-2.09029 0.70256,-2.62197 l 68.52235,-39.5614 c 0.92089,-0.53168 2.09029,-0.21834 2.62197,0.70256 l 100.00938,173.22131 c 0.53168,0.9209 0.21834,2.0903 -0.70256,2.62198 l -68.52235,39.5614 c -0.92089,0.53168 -2.09029,0.21834 -2.62197,-0.70256 z M 301.88399,168.48013 H 101.86524 c -1.06336,0 -1.919421,-0.85606 -1.919421,-1.91942 V 87.437919 c 0,-1.063359 0.856061,-1.919421 1.919421,-1.919421 h 200.01875 c 1.06336,0 1.91942,0.856062 1.91942,1.919421 v 79.122791 c 0,1.06336 -0.85606,1.91942 -1.91942,1.91942 z M 211.46459,4.8329798 111.45522,178.0543 c -0.53168,0.92089 -1.70108,1.23423 -2.62198,0.70255 L 40.310893,139.19546 c -0.920896,-0.53168 -1.234236,-1.70108 -0.702557,-2.62198 L 139.61771,-36.647836 c 0.53168,-0.920896 1.70108,-1.234237 2.62198,-0.702557 l 68.52234,39.561395 c 0.9209,0.5316796 1.23424,1.7010817 0.70256,2.6219778 z M 24.532303,1.3148995 124.54168,174.53622 c 0.53168,0.92089 0.21834,2.09029 -0.70256,2.62197 l -68.522346,39.5614 c -0.920896,0.53168 -2.090298,0.21834 -2.621978,-0.70256 L -47.314578,42.795715 c -0.531679,-0.920896 -0.218339,-2.090298 0.702557,-2.621977 L 21.910325,0.61234267 c 0.920896,-0.53167961 2.090298,-0.21833926 2.621978,0.70255683 z" />
    </clipPath>
    <clipPath
       clipPathUnits="userSpaceOnUse"
       id="clipPath751">
      <rect
         style="fill:#501627;fill-opacity:1;stroke:none;stroke-width:0.464999;stroke-linecap:square;stroke-linejoin:round;stroke-miterlimit:9.3;stroke-dasharray:none;stroke-dashoffset:6.04726;stroke-opacity:1;paint-order:stroke markers fill"
         id="rect752"
         width="203.85759"
         height="82.961632"
         x="-34.774574"
         y="52.461193"
         ry="1.919421"
         inkscape:export-filename="BeanSat\BeanSat.github.io\images\icon.svg"
         inkscape:export-xdpi="345"
         inkscape:export-ydpi="345"
         transform="rotate(20.784154)"
         d="M -32.855153,52.461193 H 167.16359 c 1.06336,0 1.91943,0.856062 1.91943,1.919421 V 133.5034 c 0,1.06336 -0.85607,1.91942 -1.91943,1.91942 H -32.855153 c -1.06336,0 -1.919421,-0.85606 -1.919421,-1.91942 V 54.380614 c 0,-1.063359 0.856061,-1.919421 1.919421,-1.919421 z M -56.380327,236.71611 43.629047,63.494795 c 0.53168,-0.920897 1.701082,-1.234237 2.621978,-0.702557 l 68.522345,39.561392 c 0.9209,0.53168 1.23424,1.70108 0.70256,2.62198 L 15.466554,278.19693 c -0.53168,0.92089 -1.701082,1.23423 -2.621978,0.70255 L -55.67777,239.33809 c -0.920896,-0.53168 -1.234236,-1.70108 -0.702557,-2.62198 z M 91.426527,349.21697 -8.5828473,175.99565 c -0.5316796,-0.92089 -0.2183392,-2.0903 0.7025569,-2.62198 L 60.642056,133.81228 c 0.920896,-0.53168 2.090298,-0.21834 2.621977,0.70256 L 163.27341,307.73615 c 0.53168,0.9209 0.21834,2.0903 -0.70256,2.62198 l -68.522346,39.5614 c -0.920896,0.53167 -2.090298,0.21833 -2.621977,-0.70256 z M 262.75855,277.46291 H 62.739806 c -1.06336,0 -1.919421,-0.85606 -1.919421,-1.91942 V 196.4207 c 0,-1.06336 0.856061,-1.91942 1.919421,-1.91942 H 262.75855 c 1.06336,0 1.91942,0.85606 1.91942,1.91942 v 79.12279 c 0,1.06336 -0.85606,1.91942 -1.91942,1.91942 z M 286.28373,93.207989 186.27435,266.42931 c -0.53168,0.92089 -1.70108,1.23423 -2.62197,0.70255 l -68.52235,-39.56139 c -0.9209,-0.53168 -1.23424,-1.70108 -0.70256,-2.62198 L 214.43685,51.727173 c 0.53168,-0.920896 1.70108,-1.234237 2.62197,-0.702557 l 68.52235,39.561395 c 0.9209,0.531679 1.23424,1.701082 0.70256,2.621978 z M 138.47687,-19.292868 238.48625,153.92845 c 0.53168,0.92089 0.21834,2.0903 -0.70256,2.62198 l -68.52235,39.56139 c -0.92089,0.53168 -2.09029,0.21834 -2.62197,-0.70256 L 66.629993,22.187948 c -0.53168,-0.920896 -0.21834,-2.090299 0.702557,-2.621978 l 68.52235,-39.561395 c 0.92089,-0.53168 2.09029,-0.218339 2.62197,0.702557 z" />
    </clipPath>
    <clipPath
       clipPathUnits="userSpaceOnUse"
       id="clipPath752">
      <rect
         style="fill:#501627;fill-opacity:1;stroke:none;stroke-width:0.464999;stroke-linecap:square;stroke-linejoin:round;stroke-miterlimit:9.3;stroke-dasharray:none;stroke-dashoffset:6.04726;stroke-opacity:1;paint-order:stroke markers fill"
         id="rect753"
         width="203.85759"
         height="82.961632"
         x="-72.706909"
         y="84.102509"
         ry="1.919421"
         inkscape:export-filename="BeanSat\BeanSat.github.io\images\icon.svg"
         inkscape:export-xdpi="345"
         inkscape:export-ydpi="345"
         d="M -70.787488,84.102509 H 129.23126 c 1.06336,0 1.91942,0.856061 1.91942,1.919421 v 79.12279 c 0,1.06336 -0.85606,1.91942 -1.91942,1.91942 H -70.787488 c -1.063359,0 -1.919421,-0.85606 -1.919421,-1.91942 V 86.02193 c 0,-1.06336 0.856062,-1.919421 1.919421,-1.919421 z M -47.944311,285.38713 52.065063,112.16582 c 0.531679,-0.9209 1.701081,-1.23424 2.621978,-0.70256 l 68.522349,39.5614 c 0.92089,0.53168 1.23423,1.70108 0.70255,2.62197 L 23.90257,326.86795 c -0.53168,0.9209 -1.701082,1.23424 -2.621978,0.70256 l -68.522346,-39.5614 c -0.920896,-0.53168 -1.234237,-1.70108 -0.702557,-2.62198 z M 137.79488,366.24668 37.785503,193.02536 c -0.531679,-0.9209 -0.218339,-2.0903 0.702557,-2.62198 l 68.52235,-39.56139 c 0.92089,-0.53168 2.09029,-0.21834 2.62197,0.70255 l 100.00938,173.22132 c 0.53168,0.9209 0.21834,2.0903 -0.70256,2.62198 l -68.52235,39.56139 c -0.92089,0.53168 -2.09029,0.21834 -2.62197,-0.70255 z M 300.69089,245.82159 H 100.67214 c -1.063359,0 -1.919421,-0.85606 -1.919421,-1.91942 v -79.12279 c 0,-1.06336 0.856062,-1.91942 1.919421,-1.91942 h 200.01875 c 1.06336,0 1.91942,0.85606 1.91942,1.91942 v 79.12279 c 0,1.06336 -0.85606,1.91942 -1.91942,1.91942 z M 277.84771,44.536965 177.83834,217.75828 c -0.53168,0.9209 -1.70108,1.23424 -2.62198,0.70256 l -68.52235,-39.5614 c -0.92089,-0.53168 -1.23423,-1.70108 -0.70255,-2.62197 L 206.00083,3.0561494 c 0.53168,-0.9208961 1.70108,-1.2342365 2.62198,-0.7025569 l 68.52234,39.5613945 c 0.9209,0.53168 1.23424,1.701082 0.70256,2.621978 z M 92.108523,-36.322576 192.1179,136.89874 c 0.53168,0.9209 0.21834,2.0903 -0.70256,2.62198 l -68.52235,39.56139 c -0.92089,0.53168 -2.09029,0.21834 -2.62197,-0.70255 L 20.261642,5.1582397 C 19.729963,4.2373436 20.043303,3.0679415 20.964199,2.5362619 L 89.486545,-37.025133 c 0.920896,-0.53168 2.090298,-0.218339 2.621978,0.702557 z" />
    </clipPath>
    <clipPath
       clipPathUnits="userSpaceOnUse"
       id="clipPath753">
      <rect
         style="fill:#501627;fill-opacity:1;stroke:none;stroke-width:0.465;stroke-linecap:square;stroke-linejoin:round;stroke-miterlimit:9.3;stroke-dasharray:none;stroke-dashoffset:6.04726;stroke-opacity:1;paint-order:stroke markers fill"
         id="rect754"
         width="67.814293"
         height="27.597622"
         x="142.85991"
         y="34.705349"
         ry="0.6385054"
         inkscape:export-filename="BeanSat\BeanSat.github.io\images\icon.svg"
         inkscape:export-xdpi="345"
         inkscape:export-ydpi="345"
         transform="matrix(0.22773282,0.97372366,0.97372366,-0.22773282,0,0)" />
    </clipPath>
  </defs>
  <g
     inkscape:label="Layer 1"
     inkscape:groupmode="layer"
     id="layer1"
     transform="translate(-118.98046,-233.31591)">
    <rect
       style="fill:#501627;fill-opacity:1;stroke:none;stroke-width:0.465;stroke-linecap:square;stroke-linejoin:round;stroke-miterlimit:9.3;stroke-dasharray:none;stroke-dashoffset:6.04726;stroke-opacity:1;paint-order:stroke markers fill"
       id="rect431"
       width="67.814293"
       height="27.597622"
       x="118.98045"
       y="233.31592"
       ry="0.6385054"
       inkscape:export-filename="BeanSat\BeanSat.github.io\images\icon.svg"
       inkscape:export-xdpi="345"
       inkscape:export-ydpi="345" />
    <g
       id="g435"
       transform="translate(6.1422986,90.685931)"
       inkscape:export-filename="BeanSat\BeanSat.github.io\images\wide logo.svg"
       inkscape:export-xdpi="345"
       inkscape:export-ydpi="345"
       style="fill:#ffcbce;fill-opacity:1">
      <rect
         style="fill:#ffcbce;fill-opacity:1;stroke:none;stroke-width:0.264999;stroke-linecap:square;stroke-linejoin:round;stroke-miterlimit:9.3;stroke-dasharray:none;stroke-dashoffset:6.04726;stroke-opacity:0;paint-order:stroke markers fill"
         id="rect432"
         width="5.8572474"
         height="4.127058"
         x="40.027271"
         y="227.93835"
         transform="rotate(-30,-49.388924,24.600823)" />
      <ellipse
         style="fill:#ffcbce;fill-opacity:1;stroke:none;stroke-width:0.264999;stroke-linecap:square;stroke-linejoin:round;stroke-miterlimit:9.3;stroke-dasharray:none;stroke-dashoffset:6.04726;stroke-opacity:0;paint-order:stroke markers fill"
         id="ellipse432"
         cx="40.027271"
         cy="230.00189"
         rx="0.86509526"
         ry="2.063529"
         transform="rotate(-30,-49.388924,24.600823)" />
      <path
         style="fill:#501627;fill-opacity:1;stroke:none;stroke-width:0.265;stroke-linecap:butt;stroke-linejoin:miter;stroke-dasharray:none;stroke-opacity:0"
         d="m 98.924767,211.62666 c 0.120925,0.31012 0.256795,0.47048 0.598108,0.58526 0.341307,0.11482 0.630945,0.16644 1.135355,0.009 0.50441,-0.15778 1.45437,-0.78236 1.28992,-1.64767 -0.098,-0.51555 -0.78903,-0.6768 -1.19137,-0.43756 -0.19062,0.11334 -0.39296,0.48349 -0.60148,0.5098 -0.319366,0.0403 -0.40113,-0.18181 -0.803874,-0.0119 -0.402736,0.16986 -0.547578,0.68335 -0.426659,0.9935 z"
         id="path432"
         sodipodi:nodetypes="zzzssszz"
         transform="rotate(-15,-90.727801,61.146189)" />
      <ellipse
         style="fill:#ffcbce;fill-opacity:1;stroke:#501627;stroke-width:0.465;stroke-linecap:square;stroke-linejoin:round;stroke-miterlimit:9.3;stroke-dasharray:none;stroke-dashoffset:6.04726;stroke-opacity:1;paint-order:stroke markers fill"
         id="ellipse433"
         cx="45.884518"
         cy="230.00189"
         rx="0.86509526"
         ry="2.063529"
         transform="rotate(-30,-49.388924,24.600823)" />
      <path
         id="path433"
         d="m 98.133619,206.36483 1.257259,-0.33688 0.217735,0.81259 -1.257259,0.33689 z m 1.430726,-0.38336 1.257255,-0.33688 0.21774,0.8126 -1.25726,0.33687 z m -1.166509,1.36943 1.257259,-0.33688 0.217735,0.8126 -1.25726,0.33688 z m 1.430725,-0.38336 1.257259,-0.33689 0.21774,0.8126 -1.25726,0.33689 z m -1.166509,1.36943 1.257259,-0.33688 0.217739,0.8126 -1.257263,0.33687 z m 1.430728,-0.38336 1.25726,-0.33689 0.21773,0.8126 -1.25726,0.33689 z"
         style="fill:#ffcbce;fill-opacity:1;stroke:none;stroke-width:0.264999;stroke-linecap:square;stroke-linejoin:round;stroke-miterlimit:9.3;stroke-dasharray:none;stroke-dashoffset:6.04726;stroke-opacity:0;paint-order:stroke markers fill"
         transform="rotate(-15,-90.727801,61.146189)" />
      <path
         id="path434"
         d="m 100.13026,213.8164 1.25726,-0.33689 0.21773,0.8126 -1.25726,0.33688 z m 1.43072,-0.38337 1.25726,-0.33688 0.21774,0.8126 -1.25726,0.33688 z m -1.16651,1.36943 1.25726,-0.33688 0.21774,0.8126 -1.25726,0.33688 z m 1.43073,-0.38336 1.25726,-0.33688 0.21774,0.81259 -1.25726,0.33689 z m -1.16651,1.36943 1.25726,-0.33688 0.21774,0.8126 -1.25726,0.33688 z m 1.43073,-0.38336 1.25726,-0.33688 0.21773,0.8126 -1.25726,0.33688 z"
         style="fill:#ffcbce;fill-opacity:1;stroke:none;stroke-width:0.264999;stroke-linecap:square;stroke-linejoin:round;stroke-miterlimit:9.3;stroke-dasharray:none;stroke-dashoffset:6.04726;stroke-opacity:0;paint-order:stroke markers fill"
         transform="rotate(-15,-90.727801,61.146189)" />
      <path
         id="path435"
         style="font-size:3.52777px;line-height:1.25;font-family:Bonbance;-inkscape-font-specification:'Bonbance, Normal';letter-spacing:0px;word-spacing:0px;fill:#ffcbce;fill-opacity:1;stroke-width:0.264582"
         d="m 155.30948,153.34257 c -1.09112,-0.0134 -1.81043,0.50884 -1.81043,1.38179 0,1.69745 2.23043,1.7305 2.23043,2.91872 0,0.37185 -0.32372,0.86439 -0.81664,0.86439 -0.88916,0 -0.75928,-1.01001 -1.23619,-1.01001 -0.16977,0 -0.29126,0.12881 -0.29126,0.31495 0,0.54965 0.40496,1.30955 1.61744,1.30955 0.80827,0 1.68134,-0.33907 1.68134,-1.61623 0,-1.5843 -2.21506,-1.66459 -2.21506,-2.86088 0,-0.29906 0.3881,-0.68775 0.76813,-0.68775 0.98616,0 0.67832,1.1959 1.13907,1.1959 0.1858,0 0.64476,-0.21839 0.47721,-0.76728 -0.24604,-0.80593 -1.11548,-1.03785 -1.54404,-1.04315 z m -14.32122,0.008 c -0.0418,6.3e-4 -0.0843,0.002 -0.12777,0.004 -0.26566,0.009 -0.54774,0.0336 -0.77317,0.0758 -0.0189,0.002 -0.0384,0.008 -0.0558,0.009 -0.0351,0.008 -0.0694,0.017 -0.1007,0.0233 -0.38665,0.10859 -0.6353,0.26894 -0.6353,0.54382 0,0.36373 0.0906,0.54958 0.0906,1.03456 v 2.66294 c -0.006,0.83232 0.0884,1.17958 0.37654,1.33443 0.18468,0.017 0.40899,0.0635 0.63835,0.0635 0.27484,0 0.40695,0.0204 0.77068,0.0204 0.75173,0 1.79504,-0.38741 1.79504,-1.60794 0,-0.81642 -0.60652,-1.22078 -1.08339,-1.40667 -0.0728,-0.0242 -0.0893,-0.057 -0.008,-0.0971 0.50115,-0.25058 0.96974,-0.63098 0.96974,-1.51206 0,-0.92146 -0.75158,-1.11536 -1.25275,-1.11536 -0.0665,-0.0241 -0.31082,-0.0388 -0.60387,-0.0345 z m 20.52099,0.0733 c -0.33143,0 -0.71047,0.41635 -0.71047,0.772 0,0.27484 -0.0169,0.10992 -0.0169,0.70808 v 3.32959 c 0,0.51734 0.0802,0.88922 0.58139,0.88922 0.67899,0 1.15183,-0.56958 0.99824,-0.74739 -0.13744,-0.16151 -0.56962,0.0531 -0.56962,-0.39168 v -2.2075 c 0,-0.0568 0.0323,-0.0888 0.0888,-0.0888 h 0.12882 c 0.45266,0 0.65476,-0.36413 0.65476,-0.62281 0,-0.0647 -0.0235,-0.11246 -0.11246,-0.11246 -0.097,0 -0.17825,0.0888 -0.43689,0.0888 h -0.23443 c -0.0568,0 -0.0888,-0.0322 -0.0888,-0.0888 v -1.17218 c 0,-0.14562 -6e-5,-0.35644 -0.28295,-0.35644 z m -20.33744,0.63112 c 0.39606,0 0.5494,0.30678 0.5494,0.63819 0,0.69517 -0.71917,1.08288 -1.15566,1.15564 -0.0808,0.009 -0.12912,-0.0239 -0.12912,-0.12093 v -1.07511 c 0.0728,-0.37991 0.48474,-0.59792 0.73533,-0.59792 z m 3.62203,0.90458 c -0.61432,0 -1.48836,0.59902 -1.48836,2.08633 0,1.13167 0.57475,2.11712 1.48008,2.11712 0.9538,0 1.35811,-0.80742 1.35811,-1.31666 0,-0.20212 -0.0652,-0.33986 -0.20249,-0.33986 -0.33947,0 -0.42002,0.75188 -0.92119,0.75188 -0.22633,0 -0.46883,-0.1856 -0.60625,-0.59794 -0.0169,-0.0568 -8.7e-4,-0.10575 0.0558,-0.1303 1.52771,-0.86488 1.63283,-0.87286 1.63283,-1.11537 0,-0.79216 -0.40307,-1.45521 -1.3084,-1.45521 z m 3.19222,0.0404 c -0.77599,0 -1.50374,0.34045 -1.50374,0.78504 0,0.33139 0.14994,0.23127 0.48943,0.23127 0.59006,0 0.47286,-0.45034 0.92549,-0.45034 0.30717,0 0.38009,0.21907 0.38009,0.45349 v 0.4689 c 0,0.0568 -0.0322,0.0887 -0.0888,0.0887 -0.8164,0.0402 -1.74649,0.62154 -1.74649,1.50258 0,0.60626 0.32386,1.04318 0.95437,1.04318 0.39607,0 0.6545,-0.17809 0.78382,-0.33156 0.0406,-0.0485 0.057,-0.0398 0.057,0.017 0.017,0.16169 0.0802,0.31497 0.2984,0.31497 0.33141,0 0.80515,-0.19843 0.80515,-0.55418 0,-0.27482 -0.0769,-0.32661 -0.0769,-0.92474 v -1.53572 c 0,-0.50115 -0.33994,-1.10831 -1.27758,-1.10831 z m 10.66129,0 c -0.77595,0 -1.50257,0.34045 -1.50257,0.78504 0,0.33139 0.16647,0.21355 0.50599,0.21355 0.59005,0 0.4551,-0.43262 0.90777,-0.43262 0.30716,0 0.38008,0.21907 0.38008,0.45349 v 0.4689 c 0,0.0568 -0.0324,0.0887 -0.0888,0.0887 -0.81641,0.0402 -1.74529,0.62154 -1.74529,1.50258 0,0.60626 0.32268,1.04318 0.95317,1.04318 0.39606,0 0.65451,-0.17809 0.78384,-0.33156 0.0403,-0.0485 0.057,-0.0398 0.057,0.017 0.017,0.16169 0.0813,0.31497 0.29957,0.31497 0.3314,0 0.75901,-0.12286 0.75901,-0.47839 0,-0.27486 -0.032,-0.4024 -0.032,-1.00053 v -1.53572 c 0,-0.50115 -0.33996,-1.10831 -1.27759,-1.10831 z m -6.74914,8.7e-4 c -0.45265,0 -0.67918,0.18579 -0.80043,0.32325 -0.0322,0.0403 -0.0559,0.0322 -0.064,-0.0402 -0.0169,-0.12123 -0.0811,-0.24273 -0.27469,-0.24273 -0.33142,0 -0.81635,0.15219 -0.81635,0.50789 0,0.27483 0.0882,0.37294 0.0882,0.97101 v 1.55228 c 0,0.30718 0.0193,0.50068 -0.0193,0.77283 -0.0281,0.19865 0.0888,0.18717 0.11616,0.2372 0.21018,0 0.26176,-0.004 0.42342,-0.004 0.12123,0 0.18858,0.009 0.39855,-1.7e-4 0.10263,-0.004 0.11289,-0.0907 0.11289,-0.23601 0,-0.27482 -0.0207,-0.46241 -0.0207,-0.76957 v -1.90754 c 0,-0.17769 0.11259,-0.43691 0.40377,-0.43691 0.25866,0 0.3552,0.38795 0.3552,0.74358 v 1.60087 c 0,0.30716 -0.0643,0.50608 -0.0643,0.78089 0,0.14563 0.10249,0.20695 0.17894,0.21582 0.2087,0.0244 0.2839,0.0358 0.44556,0.0358 0.1132,0 0.18555,0.003 0.39413,-0.0223 0.20404,-0.0252 0.19889,-0.10339 0.19889,-0.24866 0,-0.27482 -0.1422,-0.4542 -0.1422,-0.76132 v -1.95717 c 0,-0.6224 -0.29168,-1.1154 -0.9141,-1.1154 z m -7.02386,0.52457 c 0.22633,0 0.30667,0.16959 0.30667,0.46059 0,0.38797 -0.30689,0.65464 -0.73529,0.92947 -0.0808,0.0565 -0.12926,0.0333 -0.13744,-0.0559 0.008,-0.52538 0.15378,-1.33442 0.56597,-1.33442 z m -4.33249,0.8679 c 0.50117,-0.017 1.27761,0.22637 1.27761,1.16391 0,0.33141 -0.19352,0.8975 -0.72701,0.8975 -0.58198,0 -0.67964,-0.52532 -0.67964,-0.74357 v -1.17219 c 0,-0.0811 0.032,-0.12956 0.1291,-0.14577 z m 7.64669,0.74121 c 0.0565,0 0.0888,0.0322 0.0888,0.0888 v 0.6548 c 0,0.31523 -0.20193,0.5411 -0.46059,0.5411 -0.16979,0 -0.36469,-0.15327 -0.36469,-0.50086 0,-0.29908 0.12211,-0.74344 0.73649,-0.78382 z m 10.66128,0 c 0.0565,0 0.0888,0.0322 0.0888,0.0888 v 0.6548 c 0,0.31523 -0.20186,0.5411 -0.46058,0.5411 -0.1698,0 -0.36352,-0.15327 -0.36352,-0.50086 0,-0.29908 0.12109,-0.74344 0.73528,-0.78382 z"
         sodipodi:nodetypes="ssssssssssssscccccssccsssccsccccsssscsssssssssscccscsccccsssssccscccssssscssccsssscccssssscssccsssscccccssssccssssssssssssssscccscccccsssscccsssscccsssscc"
         inkscape:export-filename="BeanSat\BeanSat.github.io\images\logo word.svg"
         inkscape:export-xdpi="345"
         inkscape:export-ydpi="345" />
    </g>
    <g
       id="g437"
       style="fill:#5f8abc;fill-opacity:1"
       transform="translate(75.3401,100.60781)">
      <path
         style="color:#000000;fill:#5f8abc;fill-opacity:1;stroke-linejoin:round;stroke-miterlimit:9.3;-inkscape-stroke:none"
         d="m 69.091815,135.72977 c 0.007,0.72738 -0.27771,1.1902 -1.05938,1.39318 0.79754,0.0947 1.09574,0.69268 1.32902,1.29376 0.10179,-1.00011 0.4342,-1.24853 1.13812,-1.47557 -0.82008,0.0116 -1.09076,-0.52037 -1.40776,-1.21137 z"
         id="path436" />
      <path
         style="color:#000000;fill:#5f8abc;fill-opacity:1;stroke-linejoin:round;stroke-miterlimit:9.3;-inkscape-stroke:none"
         d="m 69.0625,135.59961 a 0.13251324,0.13251324 0 0 0 -0.103516,0.13086 c 0.0033,0.34613 -0.06237,0.612 -0.208984,0.81445 -0.146615,0.20246 -0.37909,0.3529 -0.75,0.44922 a 0.13251324,0.13251324 0 0 0 0.01758,0.25977 c 0.368263,0.0437 0.605112,0.19598 0.791016,0.41211 0.185904,0.21612 0.314575,0.50222 0.429687,0.79882 a 0.13251324,0.13251324 0 0 0 0.25586,-0.0352 c 0.04954,-0.4867 0.151012,-0.76805 0.310546,-0.95508 0.159535,-0.18703 0.392006,-0.29715 0.736329,-0.4082 a 0.13251324,0.13251324 0 0 0 -0.04297,-0.25782 c -0.381192,0.005 -0.606629,-0.1052 -0.794922,-0.30078 -0.188293,-0.19557 -0.332321,-0.48976 -0.490234,-0.83398 a 0.13251324,0.13251324 0 0 0 -0.150391,-0.0742 z m 0.07227,0.46094 c 0.112674,0.22636 0.21589,0.46357 0.376953,0.63086 0.16193,0.16819 0.434249,0.21084 0.693359,0.26757 -0.222344,0.0931 -0.455188,0.17215 -0.601562,0.34375 -0.149653,0.17545 -0.203246,0.48663 -0.267579,0.79102 -0.09353,-0.20836 -0.174696,-0.42351 -0.326171,-0.59961 -0.166074,-0.19307 -0.442827,-0.28886 -0.722657,-0.37695 0.268754,-0.10866 0.534806,-0.21865 0.677735,-0.41602 0.124693,-0.17218 0.13468,-0.41418 0.169922,-0.64062 z"
         id="path437" />
    </g>
    <g
       id="g439"
       style="fill:#5f8abc;fill-opacity:1"
       transform="rotate(-3.4084561,2079.122,-1188.371)">
      <path
         style="color:#000000;fill:#5f8abc;fill-opacity:1;stroke-linejoin:round;stroke-miterlimit:9.3;-inkscape-stroke:none"
         d="m 69.091815,135.72977 c 0.007,0.72738 -0.27771,1.1902 -1.05938,1.39318 0.79754,0.0947 1.09574,0.69268 1.32902,1.29376 0.10179,-1.00011 0.4342,-1.24853 1.13812,-1.47557 -0.82008,0.0116 -1.09076,-0.52037 -1.40776,-1.21137 z"
         id="path438" />
      <path
         style="color:#000000;fill:#5f8abc;fill-opacity:1;stroke-linejoin:round;stroke-miterlimit:9.3;-inkscape-stroke:none"
         d="m 69.0625,135.59961 a 0.13251324,0.13251324 0 0 0 -0.103516,0.13086 c 0.0033,0.34613 -0.06237,0.612 -0.208984,0.81445 -0.146615,0.20246 -0.37909,0.3529 -0.75,0.44922 a 0.13251324,0.13251324 0 0 0 0.01758,0.25977 c 0.368263,0.0437 0.605112,0.19598 0.791016,0.41211 0.185904,0.21612 0.314575,0.50222 0.429687,0.79882 a 0.13251324,0.13251324 0 0 0 0.25586,-0.0352 c 0.04954,-0.4867 0.151012,-0.76805 0.310546,-0.95508 0.159535,-0.18703 0.392006,-0.29715 0.736329,-0.4082 a 0.13251324,0.13251324 0 0 0 -0.04297,-0.25782 c -0.381192,0.005 -0.606629,-0.1052 -0.794922,-0.30078 -0.188293,-0.19557 -0.332321,-0.48976 -0.490234,-0.83398 a 0.13251324,0.13251324 0 0 0 -0.150391,-0.0742 z m 0.07227,0.46094 c 0.112674,0.22636 0.21589,0.46357 0.376953,0.63086 0.16193,0.16819 0.434249,0.21084 0.693359,0.26757 -0.222344,0.0931 -0.455188,0.17215 -0.601562,0.34375 -0.149653,0.17545 -0.203246,0.48663 -0.267579,0.79102 -0.09353,-0.20836 -0.174696,-0.42351 -0.326171,-0.59961 -0.166074,-0.19307 -0.442827,-0.28886 -0.722657,-0.37695 0.268754,-0.10866 0.534806,-0.21865 0.677735,-0.41602 0.124693,-0.17218 0.13468,-0.41418 0.169922,-0.64062 z"
         id="path439" />
    </g>
    <g
       id="g441"
       style="fill:#5f8abc;fill-opacity:1"
       transform="rotate(-12.690354,627.27304,-283.05151)">
      <path
         style="color:#000000;fill:#5f8abc;fill-opacity:1;stroke-linejoin:round;stroke-miterlimit:9.3;-inkscape-stroke:none"
         d="m 69.091815,135.72977 c 0.007,0.72738 -0.27771,1.1902 -1.05938,1.39318 0.79754,0.0947 1.09574,0.69268 1.32902,1.29376 0.10179,-1.00011 0.4342,-1.24853 1.13812,-1.47557 -0.82008,0.0116 -1.09076,-0.52037 -1.40776,-1.21137 z"
         id="path440" />
      <path
         style="color:#000000;fill:#5f8abc;fill-opacity:1;stroke-linejoin:round;stroke-miterlimit:9.3;-inkscape-stroke:none"
         d="m 69.0625,135.59961 a 0.13251324,0.13251324 0 0 0 -0.103516,0.13086 c 0.0033,0.34613 -0.06237,0.612 -0.208984,0.81445 -0.146615,0.20246 -0.37909,0.3529 -0.75,0.44922 a 0.13251324,0.13251324 0 0 0 0.01758,0.25977 c 0.368263,0.0437 0.605112,0.19598 0.791016,0.41211 0.185904,0.21612 0.314575,0.50222 0.429687,0.79882 a 0.13251324,0.13251324 0 0 0 0.25586,-0.0352 c 0.04954,-0.4867 0.151012,-0.76805 0.310546,-0.95508 0.159535,-0.18703 0.392006,-0.29715 0.736329,-0.4082 a 0.13251324,0.13251324 0 0 0 -0.04297,-0.25782 c -0.381192,0.005 -0.606629,-0.1052 -0.794922,-0.30078 -0.188293,-0.19557 -0.332321,-0.48976 -0.490234,-0.83398 a 0.13251324,0.13251324 0 0 0 -0.150391,-0.0742 z m 0.07227,0.46094 c 0.112674,0.22636 0.21589,0.46357 0.376953,0.63086 0.16193,0.16819 0.434249,0.21084 0.693359,0.26757 -0.222344,0.0931 -0.455188,0.17215 -0.601562,0.34375 -0.149653,0.17545 -0.203246,0.48663 -0.267579,0.79102 -0.09353,-0.20836 -0.174696,-0.42351 -0.326171,-0.59961 -0.166074,-0.19307 -0.442827,-0.28886 -0.722657,-0.37695 0.268754,-0.10866 0.534806,-0.21865 0.677735,-0.41602 0.124693,-0.17218 0.13468,-0.41418 0.169922,-0.64062 z"
         id="path441" />
    </g>
    <g
       id="g443"
       style="fill:#5f8abc;fill-opacity:1"
       transform="translate(61.978642,99.020308)">
      <path
         style="color:#000000;fill:#5f8abc;fill-opacity:1;stroke-linejoin:round;stroke-miterlimit:9.3;-inkscape-stroke:none"
         d="m 69.091815,135.72977 c 0.007,0.72738 -0.27771,1.1902 -1.05938,1.39318 0.79754,0.0947 1.09574,0.69268 1.32902,1.29376 0.10179,-1.00011 0.4342,-1.24853 1.13812,-1.47557 -0.82008,0.0116 -1.09076,-0.52037 -1.40776,-1.21137 z"
         id="path442" />
      <path
         style="color:#000000;fill:#5f8abc;fill-opacity:1;stroke-linejoin:round;stroke-miterlimit:9.3;-inkscape-stroke:none"
         d="m 69.0625,135.59961 a 0.13251324,0.13251324 0 0 0 -0.103516,0.13086 c 0.0033,0.34613 -0.06237,0.612 -0.208984,0.81445 -0.146615,0.20246 -0.37909,0.3529 -0.75,0.44922 a 0.13251324,0.13251324 0 0 0 0.01758,0.25977 c 0.368263,0.0437 0.605112,0.19598 0.791016,0.41211 0.185904,0.21612 0.314575,0.50222 0.429687,0.79882 a 0.13251324,0.13251324 0 0 0 0.25586,-0.0352 c 0.04954,-0.4867 0.151012,-0.76805 0.310546,-0.95508 0.159535,-0.18703 0.392006,-0.29715 0.736329,-0.4082 a 0.13251324,0.13251324 0 0 0 -0.04297,-0.25782 c -0.381192,0.005 -0.606629,-0.1052 -0.794922,-0.30078 -0.188293,-0.19557 -0.332321,-0.48976 -0.490234,-0.83398 a 0.13251324,0.13251324 0 0 0 -0.150391,-0.0742 z m 0.07227,0.46094 c 0.112674,0.22636 0.21589,0.46357 0.376953,0.63086 0.16193,0.16819 0.434249,0.21084 0.693359,0.26757 -0.222344,0.0931 -0.455188,0.17215 -0.601562,0.34375 -0.149653,0.17545 -0.203246,0.48663 -0.267579,0.79102 -0.09353,-0.20836 -0.174696,-0.42351 -0.326171,-0.59961 -0.166074,-0.19307 -0.442827,-0.28886 -0.722657,-0.37695 0.268754,-0.10866 0.534806,-0.21865 0.677735,-0.41602 0.124693,-0.17218 0.13468,-0.41418 0.169922,-0.64062 z"
         id="path443" />
    </g>
    <g
       id="g445"
       style="fill:#5f8abc;fill-opacity:1"
       transform="rotate(-25.528643,319.73053,62.016321)">
      <path
         style="color:#000000;fill:#5f8abc;fill-opacity:1;stroke-linejoin:round;stroke-miterlimit:9.3;-inkscape-stroke:none"
         d="m 69.091815,135.72977 c 0.007,0.72738 -0.27771,1.1902 -1.05938,1.39318 0.79754,0.0947 1.09574,0.69268 1.32902,1.29376 0.10179,-1.00011 0.4342,-1.24853 1.13812,-1.47557 -0.82008,0.0116 -1.09076,-0.52037 -1.40776,-1.21137 z"
         id="path444" />
      <path
         style="color:#000000;fill:#5f8abc;fill-opacity:1;stroke-linejoin:round;stroke-miterlimit:9.3;-inkscape-stroke:none"
         d="m 69.0625,135.59961 a 0.13251324,0.13251324 0 0 0 -0.103516,0.13086 c 0.0033,0.34613 -0.06237,0.612 -0.208984,0.81445 -0.146615,0.20246 -0.37909,0.3529 -0.75,0.44922 a 0.13251324,0.13251324 0 0 0 0.01758,0.25977 c 0.368263,0.0437 0.605112,0.19598 0.791016,0.41211 0.185904,0.21612 0.314575,0.50222 0.429687,0.79882 a 0.13251324,0.13251324 0 0 0 0.25586,-0.0352 c 0.04954,-0.4867 0.151012,-0.76805 0.310546,-0.95508 0.159535,-0.18703 0.392006,-0.29715 0.736329,-0.4082 a 0.13251324,0.13251324 0 0 0 -0.04297,-0.25782 c -0.381192,0.005 -0.606629,-0.1052 -0.794922,-0.30078 -0.188293,-0.19557 -0.332321,-0.48976 -0.490234,-0.83398 a 0.13251324,0.13251324 0 0 0 -0.150391,-0.0742 z m 0.07227,0.46094 c 0.112674,0.22636 0.21589,0.46357 0.376953,0.63086 0.16193,0.16819 0.434249,0.21084 0.693359,0.26757 -0.222344,0.0931 -0.455188,0.17215 -0.601562,0.34375 -0.149653,0.17545 -0.203246,0.48663 -0.267579,0.79102 -0.09353,-0.20836 -0.174696,-0.42351 -0.326171,-0.59961 -0.166074,-0.19307 -0.442827,-0.28886 -0.722657,-0.37695 0.268754,-0.10866 0.534806,-0.21865 0.677735,-0.41602 0.124693,-0.17218 0.13468,-0.41418 0.169922,-0.64062 z"
         id="path445" />
    </g>
    <path
       style="fill:#8dc994;fill-opacity:1;stroke:none;stroke-width:0.795367px;stroke-linecap:butt;stroke-linejoin:miter;stroke-opacity:1"
       d="m 107.58271,157.14245 c 0.0203,0.0324 -0.12055,-0.40576 -0.0991,-0.58941 0.0214,-0.18378 0.20639,-0.11295 0.2707,-0.0874 0.1286,0.0513 0.0702,0.7094 0.13672,0.74385 1.5513,1.8233 1.33754,2.79322 2.43654,4.01513 0.28681,0.31912 0.68979,1.01438 0.88239,1.45697 0.11348,0.26071 1.01453,1.06352 1.12745,1.25411 0.27507,0.46424 1.16142,0.87012 1.22211,1.65111 0.0159,0.21125 -1.21948,-0.32565 -1.43033,-0.41293 -0.97091,-0.40184 -0.90435,-0.6794 -1.42937,-1.01757 -0.19163,-0.12351 -1.43429,-1.86182 -1.55576,-2.26891 -0.10866,-0.36437 -0.37762,-0.92516 -0.62847,-1.223 -0.55201,-0.65532 -1.34491,-3.18389 -0.93336,-3.52185 z m -3.08748,10.29153 c 0.0382,-0.001 -0.41167,-0.0985 -0.55999,-0.20888 -0.14846,-0.11042 0.005,-0.23521 0.0597,-0.27813 0.10873,-0.0857 0.64946,0.2939 0.71255,0.25352 2.35468,-0.43182 3.08777,0.23827 4.69548,-0.10254 0.41977,-0.0888 1.22337,-0.0902 1.70296,-0.0357 0.28253,0.0321 1.4283,-0.34685 1.64982,-0.34934 0.53958,-0.006 1.33426,-0.57076 2.04096,-0.23283 0.1909,0.0919 -0.89176,0.89328 -1.07277,1.03224 -0.83346,0.63991 -1.04056,0.44349 -1.59593,0.72909 -0.20278,0.1042 -2.32953,0.31122 -2.74282,0.21287 -0.36988,-0.0881 -0.99002,-0.13555 -1.37338,-0.0672 -0.84353,0.15039 -3.42978,-0.42722 -3.51669,-0.95261 z m 7.36899,7.8196 c 0.0179,-0.0338 -0.29112,0.30728 -0.46089,0.38053 -0.16986,0.0734 -0.20101,-0.12226 -0.21104,-0.19073 -0.0199,-0.13702 0.57926,-0.4155 0.57583,-0.49033 0.80338,-2.25512 1.75023,-2.55495 2.25894,-4.11767 0.13296,-0.40795 0.53358,-1.10457 0.82057,-1.49266 0.16905,-0.22863 0.41377,-1.41037 0.52237,-1.60345 0.26451,-0.47034 0.17284,-1.44088 0.81885,-1.88394 0.175,-0.11939 0.32772,1.21893 0.35756,1.44517 0.13745,1.04175 -0.13621,1.12289 -0.16656,1.74666 -0.0112,0.22771 -0.89524,2.17304 -1.18706,2.48178 -0.26122,0.27629 -0.6124,0.78961 -0.74491,1.15577 -0.29152,0.80571 -2.08487,2.75667 -2.58333,2.56924 z m 10.45647,-2.47193 c -0.0203,-0.0324 0.12055,0.40576 0.0991,0.58941 -0.0214,0.18378 -0.20639,0.11295 -0.2707,0.0874 -0.1286,-0.0513 -0.0702,-0.7094 -0.13672,-0.74385 -1.5513,-1.8233 -1.33754,-2.79322 -2.43654,-4.01513 -0.28681,-0.31912 -0.68979,-1.01438 -0.88239,-1.45697 -0.11348,-0.26071 -1.01453,-1.06352 -1.12745,-1.25411 -0.27507,-0.46424 -1.16142,-0.87012 -1.22211,-1.65111 -0.0159,-0.21125 1.21948,0.32565 1.43033,0.41293 0.97091,0.40184 0.90435,0.6794 1.42937,1.01757 0.19163,0.12351 1.43429,1.86182 1.55576,2.26891 0.10866,0.36437 0.37762,0.92516 0.62847,1.223 0.55201,0.65532 1.34491,3.18389 0.93336,3.52185 z m 3.08748,-10.29153 c -0.0382,0.001 0.41167,0.0985 0.55999,0.20888 0.14846,0.11042 -0.005,0.23521 -0.0597,0.27813 -0.10873,0.0857 -0.64946,-0.2939 -0.71255,-0.25352 -2.35468,0.43182 -3.08777,-0.23827 -4.69548,0.10254 -0.41977,0.0888 -1.22337,0.0902 -1.70296,0.0357 -0.28253,-0.0321 -1.4283,0.34685 -1.64982,0.34934 -0.53958,0.006 -1.33426,0.57076 -2.04096,0.23283 -0.1909,-0.0919 0.89176,-0.89328 1.07277,-1.03224 0.83346,-0.63991 1.04056,-0.44349 1.59593,-0.72909 0.20278,-0.1042 2.32953,-0.31122 2.74282,-0.21287 0.36988,0.0881 0.99002,0.13555 1.37338,0.0672 0.84353,-0.15039 3.42978,0.42722 3.51669,0.95261 z m -7.36899,-7.8196 c -0.0179,0.0338 0.29112,-0.30728 0.46089,-0.38053 0.16986,-0.0734 0.20101,0.12226 0.21104,0.19073 0.0199,0.13702 -0.57926,0.4155 -0.57583,0.49033 -0.80338,2.25512 -1.75023,2.55495 -2.25894,4.11767 -0.13296,0.40795 -0.53358,1.10457 -0.82057,1.49266 -0.16905,0.22863 -0.41377,1.41037 -0.52237,1.60345 -0.26451,0.47034 -0.17284,1.44088 -0.81885,1.88394 -0.175,0.11939 -0.32772,-1.21893 -0.35756,-1.44517 -0.13745,-1.04175 0.13621,-1.12289 0.16656,-1.74666 0.0112,-0.22771 0.89524,-2.17304 1.18706,-2.48178 0.26122,-0.27629 0.6124,-0.78961 0.74491,-1.15577 0.29152,-0.80571 2.08487,-2.75667 2.58333,-2.56924 z"
       id="path446"
       sodipodi:nodetypes="cssccssssssscc"
       transform="matrix(0.33265523,0,0,0.33265523,143.16679,205.33877)"
       inkscape:original-d="m 107.58271,157.14245 c 0.0203,0.0324 -0.12055,-0.40576 -0.0991,-0.58941 0.0214,-0.18378 0.20639,-0.11295 0.2707,-0.0874 0.1286,0.0513 0.0702,0.7094 0.13672,0.74385 1.5513,1.8233 1.33754,2.79322 2.43654,4.01513 0.28681,0.31912 0.68979,1.01438 0.88239,1.45697 0.11348,0.26071 1.01453,1.06352 1.12745,1.25411 0.27507,0.46424 1.16142,0.87012 1.22211,1.65111 0.0159,0.21125 -1.21948,-0.32565 -1.43033,-0.41293 -0.97091,-0.40184 -0.90435,-0.6794 -1.42937,-1.01757 -0.19163,-0.12351 -1.43429,-1.86182 -1.55576,-2.26891 -0.10866,-0.36437 -0.37762,-0.92516 -0.62847,-1.223 -0.55201,-0.65532 -1.34491,-3.18389 -0.93336,-3.52185 z"
       inkscape:path-effect="#path-effect485"
       clip-path="url(#clipPath752)" />
    <path
       style="fill:#8dc994;fill-opacity:1;stroke:none;stroke-width:0.795367px;stroke-linecap:butt;stroke-linejoin:miter;stroke-opacity:1"
       d="m 107.58271,157.14245 c 0.0203,0.0324 -0.12055,-0.40576 -0.0991,-0.58941 0.0214,-0.18378 0.20639,-0.11295 0.2707,-0.0874 0.1286,0.0513 0.0702,0.7094 0.13672,0.74385 1.5513,1.8233 1.33754,2.79322 2.43654,4.01513 0.28681,0.31912 0.68979,1.01438 0.88239,1.45697 0.11348,0.26071 1.01453,1.06352 1.12745,1.25411 0.27507,0.46424 1.16142,0.87012 1.22211,1.65111 0.0159,0.21125 -1.21948,-0.32565 -1.43033,-0.41293 -0.97091,-0.40184 -0.90435,-0.6794 -1.42937,-1.01757 -0.19163,-0.12351 -1.43429,-1.86182 -1.55576,-2.26891 -0.10866,-0.36437 -0.37762,-0.92516 -0.62847,-1.223 -0.55201,-0.65532 -1.34491,-3.18389 -0.93336,-3.52185 z m -3.08748,10.29153 c 0.0382,-0.001 -0.41167,-0.0985 -0.55999,-0.20888 -0.14846,-0.11042 0.005,-0.23521 0.0597,-0.27813 0.10873,-0.0857 0.64946,0.2939 0.71255,0.25352 2.35468,-0.43182 3.08777,0.23827 4.69548,-0.10254 0.41977,-0.0888 1.22337,-0.0902 1.70296,-0.0357 0.28253,0.0321 1.4283,-0.34685 1.64982,-0.34934 0.53958,-0.006 1.33426,-0.57076 2.04096,-0.23283 0.1909,0.0919 -0.89176,0.89328 -1.07277,1.03224 -0.83346,0.63991 -1.04056,0.44349 -1.59593,0.72909 -0.20278,0.1042 -2.32953,0.31122 -2.74282,0.21287 -0.36988,-0.0881 -0.99002,-0.13555 -1.37338,-0.0672 -0.84353,0.15039 -3.42978,-0.42722 -3.51669,-0.95261 z m 7.36899,7.8196 c 0.0179,-0.0338 -0.29112,0.30728 -0.46089,0.38053 -0.16986,0.0734 -0.20101,-0.12226 -0.21104,-0.19073 -0.0199,-0.13702 0.57926,-0.4155 0.57583,-0.49033 0.80338,-2.25512 1.75023,-2.55495 2.25894,-4.11767 0.13296,-0.40795 0.53358,-1.10457 0.82057,-1.49266 0.16905,-0.22863 0.41377,-1.41037 0.52237,-1.60345 0.26451,-0.47034 0.17284,-1.44088 0.81885,-1.88394 0.175,-0.11939 0.32772,1.21893 0.35756,1.44517 0.13745,1.04175 -0.13621,1.12289 -0.16656,1.74666 -0.0112,0.22771 -0.89524,2.17304 -1.18706,2.48178 -0.26122,0.27629 -0.6124,0.78961 -0.74491,1.15577 -0.29152,0.80571 -2.08487,2.75667 -2.58333,2.56924 z m 10.45647,-2.47193 c -0.0203,-0.0324 0.12055,0.40576 0.0991,0.58941 -0.0214,0.18378 -0.20639,0.11295 -0.2707,0.0874 -0.1286,-0.0513 -0.0702,-0.7094 -0.13672,-0.74385 -1.5513,-1.8233 -1.33754,-2.79322 -2.43654,-4.01513 -0.28681,-0.31912 -0.68979,-1.01438 -0.88239,-1.45697 -0.11348,-0.26071 -1.01453,-1.06352 -1.12745,-1.25411 -0.27507,-0.46424 -1.16142,-0.87012 -1.22211,-1.65111 -0.0159,-0.21125 1.21948,0.32565 1.43033,0.41293 0.97091,0.40184 0.90435,0.6794 1.42937,1.01757 0.19163,0.12351 1.43429,1.86182 1.55576,2.26891 0.10866,0.36437 0.37762,0.92516 0.62847,1.223 0.55201,0.65532 1.34491,3.18389 0.93336,3.52185 z m 3.08748,-10.29153 c -0.0382,0.001 0.41167,0.0985 0.55999,0.20888 0.14846,0.11042 -0.005,0.23521 -0.0597,0.27813 -0.10873,0.0857 -0.64946,-0.2939 -0.71255,-0.25352 -2.35468,0.43182 -3.08777,-0.23827 -4.69548,0.10254 -0.41977,0.0888 -1.22337,0.0902 -1.70296,0.0357 -0.28253,-0.0321 -1.4283,0.34685 -1.64982,0.34934 -0.53958,0.006 -1.33426,0.57076 -2.04096,0.23283 -0.1909,-0.0919 0.89176,-0.89328 1.07277,-1.03224 0.83346,-0.63991 1.04056,-0.44349 1.59593,-0.72909 0.20278,-0.1042 2.32953,-0.31122 2.74282,-0.21287 0.36988,0.0881 0.99002,0.13555 1.37338,0.0672 0.84353,-0.15039 3.42978,0.42722 3.51669,0.95261 z m -7.36899,-7.8196 c -0.0179,0.0338 0.29112,-0.30728 0.46089,-0.38053 0.16986,-0.0734 0.20101,0.12226 0.21104,0.19073 0.0199,0.13702 -0.57926,0.4155 -0.57583,0.49033 -0.80338,2.25512 -1.75023,2.55495 -2.25894,4.11767 -0.13296,0.40795 -0.53358,1.10457 -0.82057,1.49266 -0.16905,0.22863 -0.41377,1.41037 -0.52237,1.60345 -0.26451,0.47034 -0.17284,1.44088 -0.81885,1.88394 -0.175,0.11939 -0.32772,-1.21893 -0.35756,-1.44517 -0.13745,-1.04175 0.13621,-1.12289 0.16656,-1.74666 0.0112,-0.22771 0.89524,-2.17304 1.18706,-2.48178 0.26122,-0.27629 0.6124,-0.78961 0.74491,-1.15577 0.29152,-0.80571 2.08487,-2.75667 2.58333,-2.56924 z"
       id="path447"
       sodipodi:nodetypes="cssccssssssscc"
       transform="matrix(0.29841597,0.14699459,-0.14699459,0.29841597,144.77769,169.86973)"
       inkscape:original-d="m 107.58271,157.14245 c 0.0203,0.0324 -0.12055,-0.40576 -0.0991,-0.58941 0.0214,-0.18378 0.20639,-0.11295 0.2707,-0.0874 0.1286,0.0513 0.0702,0.7094 0.13672,0.74385 1.5513,1.8233 1.33754,2.79322 2.43654,4.01513 0.28681,0.31912 0.68979,1.01438 0.88239,1.45697 0.11348,0.26071 1.01453,1.06352 1.12745,1.25411 0.27507,0.46424 1.16142,0.87012 1.22211,1.65111 0.0159,0.21125 -1.21948,-0.32565 -1.43033,-0.41293 -0.97091,-0.40184 -0.90435,-0.6794 -1.42937,-1.01757 -0.19163,-0.12351 -1.43429,-1.86182 -1.55576,-2.26891 -0.10866,-0.36437 -0.37762,-0.92516 -0.62847,-1.223 -0.55201,-0.65532 -1.34491,-3.18389 -0.93336,-3.52185 z"
       inkscape:path-effect="#path-effect487"
       clip-path="url(#clipPath749)" />
    <path
       style="fill:#8dc994;fill-opacity:1;stroke:none;stroke-width:0.795367px;stroke-linecap:butt;stroke-linejoin:miter;stroke-opacity:1"
       d="m 107.58271,157.14245 c 0.0203,0.0324 -0.12055,-0.40576 -0.0991,-0.58941 0.0214,-0.18378 0.20639,-0.11295 0.2707,-0.0874 0.1286,0.0513 0.0702,0.7094 0.13672,0.74385 1.5513,1.8233 1.33754,2.79322 2.43654,4.01513 0.28681,0.31912 0.68979,1.01438 0.88239,1.45697 0.11348,0.26071 1.01453,1.06352 1.12745,1.25411 0.27507,0.46424 1.16142,0.87012 1.22211,1.65111 0.0159,0.21125 -1.21948,-0.32565 -1.43033,-0.41293 -0.97091,-0.40184 -0.90435,-0.6794 -1.42937,-1.01757 -0.19163,-0.12351 -1.43429,-1.86182 -1.55576,-2.26891 -0.10866,-0.36437 -0.37762,-0.92516 -0.62847,-1.223 -0.55201,-0.65532 -1.34491,-3.18389 -0.93336,-3.52185 z m -3.08748,10.29153 c 0.0382,-0.001 -0.41167,-0.0985 -0.55999,-0.20888 -0.14846,-0.11042 0.005,-0.23521 0.0597,-0.27813 0.10873,-0.0857 0.64946,0.2939 0.71255,0.25352 2.35468,-0.43182 3.08777,0.23827 4.69548,-0.10254 0.41977,-0.0888 1.22337,-0.0902 1.70296,-0.0357 0.28253,0.0321 1.4283,-0.34685 1.64982,-0.34934 0.53958,-0.006 1.33426,-0.57076 2.04096,-0.23283 0.1909,0.0919 -0.89176,0.89328 -1.07277,1.03224 -0.83346,0.63991 -1.04056,0.44349 -1.59593,0.72909 -0.20278,0.1042 -2.32953,0.31122 -2.74282,0.21287 -0.36988,-0.0881 -0.99002,-0.13555 -1.37338,-0.0672 -0.84353,0.15039 -3.42978,-0.42722 -3.51669,-0.95261 z m 7.36899,7.8196 c 0.0179,-0.0338 -0.29112,0.30728 -0.46089,0.38053 -0.16986,0.0734 -0.20101,-0.12226 -0.21104,-0.19073 -0.0199,-0.13702 0.57926,-0.4155 0.57583,-0.49033 0.80338,-2.25512 1.75023,-2.55495 2.25894,-4.11767 0.13296,-0.40795 0.53358,-1.10457 0.82057,-1.49266 0.16905,-0.22863 0.41377,-1.41037 0.52237,-1.60345 0.26451,-0.47034 0.17284,-1.44088 0.81885,-1.88394 0.175,-0.11939 0.32772,1.21893 0.35756,1.44517 0.13745,1.04175 -0.13621,1.12289 -0.16656,1.74666 -0.0112,0.22771 -0.89524,2.17304 -1.18706,2.48178 -0.26122,0.27629 -0.6124,0.78961 -0.74491,1.15577 -0.29152,0.80571 -2.08487,2.75667 -2.58333,2.56924 z m 10.45647,-2.47193 c -0.0203,-0.0324 0.12055,0.40576 0.0991,0.58941 -0.0214,0.18378 -0.20639,0.11295 -0.2707,0.0874 -0.1286,-0.0513 -0.0702,-0.7094 -0.13672,-0.74385 -1.5513,-1.8233 -1.33754,-2.79322 -2.43654,-4.01513 -0.28681,-0.31912 -0.68979,-1.01438 -0.88239,-1.45697 -0.11348,-0.26071 -1.01453,-1.06352 -1.12745,-1.25411 -0.27507,-0.46424 -1.16142,-0.87012 -1.22211,-1.65111 -0.0159,-0.21125 1.21948,0.32565 1.43033,0.41293 0.97091,0.40184 0.90435,0.6794 1.42937,1.01757 0.19163,0.12351 1.43429,1.86182 1.55576,2.26891 0.10866,0.36437 0.37762,0.92516 0.62847,1.223 0.55201,0.65532 1.34491,3.18389 0.93336,3.52185 z m 3.08748,-10.29153 c -0.0382,0.001 0.41167,0.0985 0.55999,0.20888 0.14846,0.11042 -0.005,0.23521 -0.0597,0.27813 -0.10873,0.0857 -0.64946,-0.2939 -0.71255,-0.25352 -2.35468,0.43182 -3.08777,-0.23827 -4.69548,0.10254 -0.41977,0.0888 -1.22337,0.0902 -1.70296,0.0357 -0.28253,-0.0321 -1.4283,0.34685 -1.64982,0.34934 -0.53958,0.006 -1.33426,0.57076 -2.04096,0.23283 -0.1909,-0.0919 0.89176,-0.89328 1.07277,-1.03224 0.83346,-0.63991 1.04056,-0.44349 1.59593,-0.72909 0.20278,-0.1042 2.32953,-0.31122 2.74282,-0.21287 0.36988,0.0881 0.99002,0.13555 1.37338,0.0672 0.84353,-0.15039 3.42978,0.42722 3.51669,0.95261 z m -7.36899,-7.8196 c -0.0179,0.0338 0.29112,-0.30728 0.46089,-0.38053 0.16986,-0.0734 0.20101,0.12226 0.21104,0.19073 0.0199,0.13702 -0.57926,0.4155 -0.57583,0.49033 -0.80338,2.25512 -1.75023,2.55495 -2.25894,4.11767 -0.13296,0.40795 -0.53358,1.10457 -0.82057,1.49266 -0.16905,0.22863 -0.41377,1.41037 -0.52237,1.60345 -0.26451,0.47034 -0.17284,1.44088 -0.81885,1.88394 -0.175,0.11939 -0.32772,-1.21893 -0.35756,-1.44517 -0.13745,-1.04175 0.13621,-1.12289 0.16656,-1.74666 0.0112,-0.22771 0.89524,-2.17304 1.18706,-2.48178 0.26122,-0.27629 0.6124,-0.78961 0.74491,-1.15577 0.29152,-0.80571 2.08487,-2.75667 2.58333,-2.56924 z"
       id="path449"
       sodipodi:nodetypes="cssccssssssscc"
       transform="matrix(-0.09736075,0.31808864,-0.31808864,-0.09736075,184.23339,232.94794)"
       inkscape:original-d="m 107.58271,157.14245 c 0.0203,0.0324 -0.12055,-0.40576 -0.0991,-0.58941 0.0214,-0.18378 0.20639,-0.11295 0.2707,-0.0874 0.1286,0.0513 0.0702,0.7094 0.13672,0.74385 1.5513,1.8233 1.33754,2.79322 2.43654,4.01513 0.28681,0.31912 0.68979,1.01438 0.88239,1.45697 0.11348,0.26071 1.01453,1.06352 1.12745,1.25411 0.27507,0.46424 1.16142,0.87012 1.22211,1.65111 0.0159,0.21125 -1.21948,-0.32565 -1.43033,-0.41293 -0.97091,-0.40184 -0.90435,-0.6794 -1.42937,-1.01757 -0.19163,-0.12351 -1.43429,-1.86182 -1.55576,-2.26891 -0.10866,-0.36437 -0.37762,-0.92516 -0.62847,-1.223 -0.55201,-0.65532 -1.34491,-3.18389 -0.93336,-3.52185 z"
       inkscape:path-effect="#path-effect491"
       clip-path="url(#clipPath748)" />
    <g
       id="g451"
       transform="matrix(0.22773282,0.97372366,0.97372366,-0.22773282,-61.182188,211.03282)"
       style="fill:#ffcbce;fill-opacity:1">
      <path
         style="fill:#ffcbce;fill-opacity:1;stroke:none;stroke-width:0.264583px;stroke-linecap:butt;stroke-linejoin:miter;stroke-opacity:1"
         d="m 76.314014,174.00348 c -0.662761,-0.327 -0.438747,-1.26337 0.09527,-1.43111 1.039949,-0.3267 2.942895,1.90681 1.641113,2.30415 -0.958327,0.29251 -1.067254,-0.55341 -1.73638,-0.87304 -0.669126,-0.31963 -3e-6,0 -3e-6,0 z"
         id="path450"
         sodipodi:nodetypes="zsszz" />
      <path
         style="fill:#200b11;fill-opacity:1;stroke:none;stroke-width:0.264583px;stroke-linecap:butt;stroke-linejoin:miter;stroke-opacity:1"
         d="m 77.204001,174.33713 c -0.189615,0.17221 -0.796634,-0.51199 -0.676642,-0.62525 0.119992,-0.11326 0.809431,0.50465 0.676642,0.62525 z"
         id="path451"
         sodipodi:nodetypes="zzz" />
    </g>
    <g
       id="g453"
       transform="rotate(103.16363,88.800837,251.56214)"
       style="fill:#ffcbce;fill-opacity:1">
      <path
         style="fill:#ffcbce;fill-opacity:1;stroke:none;stroke-width:0.264583px;stroke-linecap:butt;stroke-linejoin:miter;stroke-opacity:1"
         d="m 76.314014,174.00348 c -0.662761,-0.327 -0.438747,-1.26337 0.09527,-1.43111 1.039949,-0.3267 2.942895,1.90681 1.641113,2.30415 -0.958327,0.29251 -1.067254,-0.55341 -1.73638,-0.87304 -0.669126,-0.31963 -3e-6,0 -3e-6,0 z"
         id="path452"
         sodipodi:nodetypes="zsszz" />
      <path
         style="fill:#200b11;fill-opacity:1;stroke:none;stroke-width:0.264583px;stroke-linecap:butt;stroke-linejoin:miter;stroke-opacity:1"
         d="m 77.204001,174.33713 c -0.189615,0.17221 -0.796634,-0.51199 -0.676642,-0.62525 0.119992,-0.11326 0.809431,0.50465 0.676642,0.62525 z"
         id="path453"
         sodipodi:nodetypes="zzz" />
    </g>
    <g
       id="g455"
       transform="rotate(146.91121,89.938942,215.25896)"
       style="fill:#ffcbce;fill-opacity:1">
      <path
         style="fill:#ffcbce;fill-opacity:1;stroke:none;stroke-width:0.264583px;stroke-linecap:butt;stroke-linejoin:miter;stroke-opacity:1"
         d="m 76.314014,174.00348 c -0.662761,-0.327 -0.438747,-1.26337 0.09527,-1.43111 1.039949,-0.3267 2.942895,1.90681 1.641113,2.30415 -0.958327,0.29251 -1.067254,-0.55341 -1.73638,-0.87304 -0.669126,-0.31963 -3e-6,0 -3e-6,0 z"
         id="path454"
         sodipodi:nodetypes="zsszz" />
      <path
         style="fill:#200b11;fill-opacity:1;stroke:none;stroke-width:0.264583px;stroke-linecap:butt;stroke-linejoin:miter;stroke-opacity:1"
         d="m 77.204001,174.33713 c -0.189615,0.17221 -0.796634,-0.51199 -0.676642,-0.62525 0.119992,-0.11326 0.809431,0.50465 0.676642,0.62525 z"
         id="path455"
         sodipodi:nodetypes="zzz" />
    </g>
    <g
       id="g459"
       transform="matrix(0.49291198,-0.10301326,0.10301326,0.49291198,84.238316,181.50676)"
       style="stroke-width:1.98586">
      <path
         style="fill:#ffcbce;fill-opacity:1;stroke:none;stroke-width:0.526252;stroke-linecap:butt;stroke-linejoin:miter;stroke-dasharray:none;stroke-opacity:0"
         d="m 160.06874,157.33208 c -0.65485,0.87359 -1.2252,1.26081 -2.40462,1.32328 -1.17942,0.0625 -2.13999,-0.0292 -3.59503,-0.97138 -1.45504,-0.94216 -3.90736,-3.75117 -2.62671,-6.34068 0.76302,-1.54285 3.08837,-1.4446 4.14929,-0.33484 0.50262,0.52577 0.81642,1.87335 1.45213,2.13984 0.97371,0.40818 1.42738,-0.22151 2.55055,0.66936 1.12317,0.89089 1.12923,2.64082 0.47439,3.51442 z"
         id="path456"
         sodipodi:nodetypes="zzzssszz" />
      <g
         id="g458"
         style="fill:#501627;fill-opacity:1;stroke-width:1.98586"
         transform="translate(58.472914,-3.1750001)">
        <path
           style="color:#000000;fill:#501627;fill-opacity:1;stroke-width:1.98586;stroke-linejoin:round;stroke-miterlimit:9.3;-inkscape-stroke:none"
           d="m 97.40223,155.8381 c 0.007,0.72738 -0.27771,1.1902 -1.05938,1.39318 0.79754,0.0947 1.09574,0.69268 1.32902,1.29376 0.10179,-1.00011 0.4342,-1.24853 1.13812,-1.47557 -0.82008,0.0116 -1.09076,-0.52037 -1.40776,-1.21137 z"
           id="path457" />
        <path
           style="color:#000000;fill:#501627;fill-opacity:1;stroke-width:1.98586;stroke-linejoin:round;stroke-miterlimit:9.3;-inkscape-stroke:none"
           d="m 97.373047,155.70898 a 0.13251324,0.13251324 0 0 0 -0.103516,0.13086 c 0.0033,0.34614 -0.06237,0.612 -0.208984,0.81446 -0.146615,0.20245 -0.381043,0.3529 -0.751953,0.44922 a 0.13251324,0.13251324 0 0 0 0.01953,0.25976 c 0.368263,0.0437 0.605111,0.19599 0.791016,0.41211 0.185904,0.21613 0.314575,0.50027 0.429687,0.79688 a 0.13251324,0.13251324 0 0 0 0.253906,-0.0332 c 0.04954,-0.4867 0.152966,-0.76804 0.3125,-0.95508 0.159535,-0.18703 0.392006,-0.29714 0.736328,-0.4082 a 0.13251324,0.13251324 0 0 0 -0.04297,-0.25976 c -0.381192,0.005 -0.606629,-0.10521 -0.794922,-0.30079 -0.188293,-0.19557 -0.332321,-0.48781 -0.490235,-0.83203 a 0.13251324,0.13251324 0 0 0 -0.15039,-0.0742 z m 0.07227,0.45899 c 0.112675,0.22637 0.215891,0.46357 0.376954,0.63086 0.16248,0.16876 0.434953,0.21306 0.695312,0.26953 -0.223069,0.0932 -0.456783,0.17173 -0.603516,0.34375 -0.14932,0.17506 -0.203226,0.48569 -0.267578,0.78906 -0.09353,-0.20835 -0.174696,-0.42351 -0.326172,-0.59961 -0.166074,-0.19307 -0.442826,-0.28886 -0.722656,-0.37695 0.268754,-0.10866 0.534806,-0.21865 0.677735,-0.41602 0.124693,-0.17218 0.13468,-0.41418 0.169921,-0.64062 z"
           id="path458" />
      </g>
    </g>
    <g
       id="g460"
       transform="translate(85.060347,81.73164)"
       style="fill:#ffcbce;fill-opacity:1">
      <path
         style="fill:#ffcbce;fill-opacity:1;stroke:none;stroke-width:0.264583px;stroke-linecap:butt;stroke-linejoin:miter;stroke-opacity:1"
         d="m 76.314014,174.00348 c -0.662761,-0.327 -0.438747,-1.26337 0.09527,-1.43111 1.039949,-0.3267 2.942895,1.90681 1.641113,2.30415 -0.958327,0.29251 -1.067254,-0.55341 -1.73638,-0.87304 -0.669126,-0.31963 -3e-6,0 -3e-6,0 z"
         id="path459"
         sodipodi:nodetypes="zsszz" />
      <path
         style="fill:#200b11;fill-opacity:1;stroke:none;stroke-width:0.264583px;stroke-linecap:butt;stroke-linejoin:miter;stroke-opacity:1"
         d="m 77.204001,174.33713 c -0.189615,0.17221 -0.796634,-0.51199 -0.676642,-0.62525 0.119992,-0.11326 0.809431,0.50465 0.676642,0.62525 z"
         id="path460"
         sodipodi:nodetypes="zzz" />
    </g>
    <g
       id="g462"
       transform="rotate(-74.540095,173.16507,162.45725)"
       style="fill:#ffcbce;fill-opacity:1">
      <path
         style="fill:#ffcbce;fill-opacity:1;stroke:none;stroke-width:0.264583px;stroke-linecap:butt;stroke-linejoin:miter;stroke-opacity:1"
         d="m 76.314014,174.00348 c -0.662761,-0.327 -0.438747,-1.26337 0.09527,-1.43111 1.039949,-0.3267 2.942895,1.90681 1.641113,2.30415 -0.958327,0.29251 -1.067254,-0.55341 -1.73638,-0.87304 -0.669126,-0.31963 -3e-6,0 -3e-6,0 z"
         id="path461"
         sodipodi:nodetypes="zsszz" />
      <path
         style="fill:#200b11;fill-opacity:1;stroke:none;stroke-width:0.264583px;stroke-linecap:butt;stroke-linejoin:miter;stroke-opacity:1"
         d="m 77.204001,174.33713 c -0.189615,0.17221 -0.796634,-0.51199 -0.676642,-0.62525 0.119992,-0.11326 0.809431,0.50465 0.676642,0.62525 z"
         id="path462"
         sodipodi:nodetypes="zzz" />
    </g>
    <path
       style="fill:#8dc994;fill-opacity:1;stroke:none;stroke-width:0.795367px;stroke-linecap:butt;stroke-linejoin:miter;stroke-opacity:1"
       d="m 107.58271,157.14245 c 0.0203,0.0324 -0.12055,-0.40576 -0.0991,-0.58941 0.0214,-0.18378 0.20639,-0.11295 0.2707,-0.0874 0.1286,0.0513 0.0702,0.7094 0.13672,0.74385 1.5513,1.8233 1.33754,2.79322 2.43654,4.01513 0.28681,0.31912 0.68979,1.01438 0.88239,1.45697 0.11348,0.26071 1.01453,1.06352 1.12745,1.25411 0.27507,0.46424 1.16142,0.87012 1.22211,1.65111 0.0159,0.21125 -1.21948,-0.32565 -1.43033,-0.41293 -0.97091,-0.40184 -0.90435,-0.6794 -1.42937,-1.01757 -0.19163,-0.12351 -1.43429,-1.86182 -1.55576,-2.26891 -0.10866,-0.36437 -0.37762,-0.92516 -0.62847,-1.223 -0.55201,-0.65532 -1.34491,-3.18389 -0.93336,-3.52185 z m -3.08748,10.29153 c 0.0382,-0.001 -0.41167,-0.0985 -0.55999,-0.20888 -0.14846,-0.11042 0.005,-0.23521 0.0597,-0.27813 0.10873,-0.0857 0.64946,0.2939 0.71255,0.25352 2.35468,-0.43182 3.08777,0.23827 4.69548,-0.10254 0.41977,-0.0888 1.22337,-0.0902 1.70296,-0.0357 0.28253,0.0321 1.4283,-0.34685 1.64982,-0.34934 0.53958,-0.006 1.33426,-0.57076 2.04096,-0.23283 0.1909,0.0919 -0.89176,0.89328 -1.07277,1.03224 -0.83346,0.63991 -1.04056,0.44349 -1.59593,0.72909 -0.20278,0.1042 -2.32953,0.31122 -2.74282,0.21287 -0.36988,-0.0881 -0.99002,-0.13555 -1.37338,-0.0672 -0.84353,0.15039 -3.42978,-0.42722 -3.51669,-0.95261 z m 7.36899,7.8196 c 0.0179,-0.0338 -0.29112,0.30728 -0.46089,0.38053 -0.16986,0.0734 -0.20101,-0.12226 -0.21104,-0.19073 -0.0199,-0.13702 0.57926,-0.4155 0.57583,-0.49033 0.80338,-2.25512 1.75023,-2.55495 2.25894,-4.11767 0.13296,-0.40795 0.53358,-1.10457 0.82057,-1.49266 0.16905,-0.22863 0.41377,-1.41037 0.52237,-1.60345 0.26451,-0.47034 0.17284,-1.44088 0.81885,-1.88394 0.175,-0.11939 0.32772,1.21893 0.35756,1.44517 0.13745,1.04175 -0.13621,1.12289 -0.16656,1.74666 -0.0112,0.22771 -0.89524,2.17304 -1.18706,2.48178 -0.26122,0.27629 -0.6124,0.78961 -0.74491,1.15577 -0.29152,0.80571 -2.08487,2.75667 -2.58333,2.56924 z m 10.45647,-2.47193 c -0.0203,-0.0324 0.12055,0.40576 0.0991,0.58941 -0.0214,0.18378 -0.20639,0.11295 -0.2707,0.0874 -0.1286,-0.0513 -0.0702,-0.7094 -0.13672,-0.74385 -1.5513,-1.8233 -1.33754,-2.79322 -2.43654,-4.01513 -0.28681,-0.31912 -0.68979,-1.01438 -0.88239,-1.45697 -0.11348,-0.26071 -1.01453,-1.06352 -1.12745,-1.25411 -0.27507,-0.46424 -1.16142,-0.87012 -1.22211,-1.65111 -0.0159,-0.21125 1.21948,0.32565 1.43033,0.41293 0.97091,0.40184 0.90435,0.6794 1.42937,1.01757 0.19163,0.12351 1.43429,1.86182 1.55576,2.26891 0.10866,0.36437 0.37762,0.92516 0.62847,1.223 0.55201,0.65532 1.34491,3.18389 0.93336,3.52185 z m 3.08748,-10.29153 c -0.0382,0.001 0.41167,0.0985 0.55999,0.20888 0.14846,0.11042 -0.005,0.23521 -0.0597,0.27813 -0.10873,0.0857 -0.64946,-0.2939 -0.71255,-0.25352 -2.35468,0.43182 -3.08777,-0.23827 -4.69548,0.10254 -0.41977,0.0888 -1.22337,0.0902 -1.70296,0.0357 -0.28253,-0.0321 -1.4283,0.34685 -1.64982,0.34934 -0.53958,0.006 -1.33426,0.57076 -2.04096,0.23283 -0.1909,-0.0919 0.89176,-0.89328 1.07277,-1.03224 0.83346,-0.63991 1.04056,-0.44349 1.59593,-0.72909 0.20278,-0.1042 2.32953,-0.31122 2.74282,-0.21287 0.36988,0.0881 0.99002,0.13555 1.37338,0.0672 0.84353,-0.15039 3.42978,0.42722 3.51669,0.95261 z m -7.36899,-7.8196 c -0.0179,0.0338 0.29112,-0.30728 0.46089,-0.38053 0.16986,-0.0734 0.20101,0.12226 0.21104,0.19073 0.0199,0.13702 -0.57926,0.4155 -0.57583,0.49033 -0.80338,2.25512 -1.75023,2.55495 -2.25894,4.11767 -0.13296,0.40795 -0.53358,1.10457 -0.82057,1.49266 -0.16905,0.22863 -0.41377,1.41037 -0.52237,1.60345 -0.26451,0.47034 -0.17284,1.44088 -0.81885,1.88394 -0.175,0.11939 -0.32772,-1.21893 -0.35756,-1.44517 -0.13745,-1.04175 0.13621,-1.12289 0.16656,-1.74666 0.0112,-0.22771 0.89524,-2.17304 1.18706,-2.48178 0.26122,-0.27629 0.6124,-0.78961 0.74491,-1.15577 0.29152,-0.80571 2.08487,-2.75667 2.58333,-2.56924 z"
       id="path463"
       sodipodi:nodetypes="cssccssssssscc"
       transform="matrix(0.33265523,0,0,0.33265523,143.56368,179.61073)"
       inkscape:original-d="m 107.58271,157.14245 c 0.0203,0.0324 -0.12055,-0.40576 -0.0991,-0.58941 0.0214,-0.18378 0.20639,-0.11295 0.2707,-0.0874 0.1286,0.0513 0.0702,0.7094 0.13672,0.74385 1.5513,1.8233 1.33754,2.79322 2.43654,4.01513 0.28681,0.31912 0.68979,1.01438 0.88239,1.45697 0.11348,0.26071 1.01453,1.06352 1.12745,1.25411 0.27507,0.46424 1.16142,0.87012 1.22211,1.65111 0.0159,0.21125 -1.21948,-0.32565 -1.43033,-0.41293 -0.97091,-0.40184 -0.90435,-0.6794 -1.42937,-1.01757 -0.19163,-0.12351 -1.43429,-1.86182 -1.55576,-2.26891 -0.10866,-0.36437 -0.37762,-0.92516 -0.62847,-1.223 -0.55201,-0.65532 -1.34491,-3.18389 -0.93336,-3.52185 z"
       inkscape:path-effect="#path-effect493"
       clip-path="url(#clipPath750)" />
    <g
       id="g465"
       style="fill:#5f8abc;fill-opacity:1"
       transform="rotate(18.474973,-261.38601,434.57519)">
      <path
         style="color:#000000;fill:#5f8abc;fill-opacity:1;stroke-linejoin:round;stroke-miterlimit:9.3;-inkscape-stroke:none"
         d="m 69.091815,135.72977 c 0.007,0.72738 -0.27771,1.1902 -1.05938,1.39318 0.79754,0.0947 1.09574,0.69268 1.32902,1.29376 0.10179,-1.00011 0.4342,-1.24853 1.13812,-1.47557 -0.82008,0.0116 -1.09076,-0.52037 -1.40776,-1.21137 z"
         id="path464" />
      <path
         style="color:#000000;fill:#5f8abc;fill-opacity:1;stroke-linejoin:round;stroke-miterlimit:9.3;-inkscape-stroke:none"
         d="m 69.0625,135.59961 a 0.13251324,0.13251324 0 0 0 -0.103516,0.13086 c 0.0033,0.34613 -0.06237,0.612 -0.208984,0.81445 -0.146615,0.20246 -0.37909,0.3529 -0.75,0.44922 a 0.13251324,0.13251324 0 0 0 0.01758,0.25977 c 0.368263,0.0437 0.605112,0.19598 0.791016,0.41211 0.185904,0.21612 0.314575,0.50222 0.429687,0.79882 a 0.13251324,0.13251324 0 0 0 0.25586,-0.0352 c 0.04954,-0.4867 0.151012,-0.76805 0.310546,-0.95508 0.159535,-0.18703 0.392006,-0.29715 0.736329,-0.4082 a 0.13251324,0.13251324 0 0 0 -0.04297,-0.25782 c -0.381192,0.005 -0.606629,-0.1052 -0.794922,-0.30078 -0.188293,-0.19557 -0.332321,-0.48976 -0.490234,-0.83398 a 0.13251324,0.13251324 0 0 0 -0.150391,-0.0742 z m 0.07227,0.46094 c 0.112674,0.22636 0.21589,0.46357 0.376953,0.63086 0.16193,0.16819 0.434249,0.21084 0.693359,0.26757 -0.222344,0.0931 -0.455188,0.17215 -0.601562,0.34375 -0.149653,0.17545 -0.203246,0.48663 -0.267579,0.79102 -0.09353,-0.20836 -0.174696,-0.42351 -0.326171,-0.59961 -0.166074,-0.19307 -0.442827,-0.28886 -0.722657,-0.37695 0.268754,-0.10866 0.534806,-0.21865 0.677735,-0.41602 0.124693,-0.17218 0.13468,-0.41418 0.169922,-0.64062 z"
         id="path465" />
    </g>
    <g
       id="g467"
       transform="translate(85.444973,67.364858)"
       style="fill:#ffcbce;fill-opacity:1">
      <path
         style="fill:#ffcbce;fill-opacity:1;stroke:none;stroke-width:0.264583px;stroke-linecap:butt;stroke-linejoin:miter;stroke-opacity:1"
         d="m 76.314014,174.00348 c -0.662761,-0.327 -0.438747,-1.26337 0.09527,-1.43111 1.039949,-0.3267 2.942895,1.90681 1.641113,2.30415 -0.958327,0.29251 -1.067254,-0.55341 -1.73638,-0.87304 -0.669126,-0.31963 -3e-6,0 -3e-6,0 z"
         id="path466"
         sodipodi:nodetypes="zsszz" />
      <path
         style="fill:#200b11;fill-opacity:1;stroke:none;stroke-width:0.264583px;stroke-linecap:butt;stroke-linejoin:miter;stroke-opacity:1"
         d="m 77.204001,174.33713 c -0.189615,0.17221 -0.796634,-0.51199 -0.676642,-0.62525 0.119992,-0.11326 0.809431,0.50465 0.676642,0.62525 z"
         id="path467"
         sodipodi:nodetypes="zzz" />
    </g>
    <g
       id="g469"
       transform="rotate(103.16363,96.685897,241.49154)"
       style="fill:#ffcbce;fill-opacity:1">
      <path
         style="fill:#ffcbce;fill-opacity:1;stroke:none;stroke-width:0.264583px;stroke-linecap:butt;stroke-linejoin:miter;stroke-opacity:1"
         d="m 76.314014,174.00348 c -0.662761,-0.327 -0.438747,-1.26337 0.09527,-1.43111 1.039949,-0.3267 2.942895,1.90681 1.641113,2.30415 -0.958327,0.29251 -1.067254,-0.55341 -1.73638,-0.87304 -0.669126,-0.31963 -3e-6,0 -3e-6,0 z"
         id="path468"
         sodipodi:nodetypes="zsszz" />
      <path
         style="fill:#200b11;fill-opacity:1;stroke:none;stroke-width:0.264583px;stroke-linecap:butt;stroke-linejoin:miter;stroke-opacity:1"
         d="m 77.204001,174.33713 c -0.189615,0.17221 -0.796634,-0.51199 -0.676642,-0.62525 0.119992,-0.11326 0.809431,0.50465 0.676642,0.62525 z"
         id="path469"
         sodipodi:nodetypes="zzz" />
    </g>
    <g
       id="g471"
       transform="matrix(0.22773282,0.97372366,0.97372366,-0.22773282,-23.879453,198.61056)"
       style="fill:#ffcbce;fill-opacity:1"
       clip-path="url(#clipPath753)">
      <path
         style="fill:#ffcbce;fill-opacity:1;stroke:none;stroke-width:0.264583px;stroke-linecap:butt;stroke-linejoin:miter;stroke-opacity:1"
         d="m 76.314014,174.00348 c -0.662761,-0.327 -0.438747,-1.26337 0.09527,-1.43111 1.039949,-0.3267 2.942895,1.90681 1.641113,2.30415 -0.958327,0.29251 -1.067254,-0.55341 -1.73638,-0.87304 -0.669126,-0.31963 -3e-6,0 -3e-6,0 z"
         id="path470"
         sodipodi:nodetypes="zsszz" />
      <path
         style="fill:#200b11;fill-opacity:1;stroke:none;stroke-width:0.264583px;stroke-linecap:butt;stroke-linejoin:miter;stroke-opacity:1"
         d="m 77.204001,174.33713 c -0.189615,0.17221 -0.796634,-0.51199 -0.676642,-0.62525 0.119992,-0.11326 0.809431,0.50465 0.676642,0.62525 z"
         id="path471"
         sodipodi:nodetypes="zzz" />
    </g>
    <g
       id="g475"
       transform="matrix(-0.48068291,-0.15005961,-0.15005961,0.48068291,279.39054,195.01532)"
       style="stroke-width:1.98586">
      <path
         style="fill:#ffcbce;fill-opacity:1;stroke:none;stroke-width:0.526252;stroke-linecap:butt;stroke-linejoin:miter;stroke-dasharray:none;stroke-opacity:0"
         d="m 160.06874,157.33208 c -0.65485,0.87359 -1.2252,1.26081 -2.40462,1.32328 -1.17942,0.0625 -2.13999,-0.0292 -3.59503,-0.97138 -1.45504,-0.94216 -3.90736,-3.75117 -2.62671,-6.34068 0.76302,-1.54285 3.08837,-1.4446 4.14929,-0.33484 0.50262,0.52577 0.81642,1.87335 1.45213,2.13984 0.97371,0.40818 1.42738,-0.22151 2.55055,0.66936 1.12317,0.89089 1.12923,2.64082 0.47439,3.51442 z"
         id="path472"
         sodipodi:nodetypes="zzzssszz" />
      <g
         id="g474"
         style="fill:#501627;fill-opacity:1;stroke-width:1.98586"
         transform="translate(58.472914,-3.1750001)">
        <path
           style="color:#000000;fill:#501627;fill-opacity:1;stroke-width:1.98586;stroke-linejoin:round;stroke-miterlimit:9.3;-inkscape-stroke:none"
           d="m 97.40223,155.8381 c 0.007,0.72738 -0.27771,1.1902 -1.05938,1.39318 0.79754,0.0947 1.09574,0.69268 1.32902,1.29376 0.10179,-1.00011 0.4342,-1.24853 1.13812,-1.47557 -0.82008,0.0116 -1.09076,-0.52037 -1.40776,-1.21137 z"
           id="path473" />
        <path
           style="color:#000000;fill:#501627;fill-opacity:1;stroke-width:1.98586;stroke-linejoin:round;stroke-miterlimit:9.3;-inkscape-stroke:none"
           d="m 97.373047,155.70898 a 0.13251324,0.13251324 0 0 0 -0.103516,0.13086 c 0.0033,0.34614 -0.06237,0.612 -0.208984,0.81446 -0.146615,0.20245 -0.381043,0.3529 -0.751953,0.44922 a 0.13251324,0.13251324 0 0 0 0.01953,0.25976 c 0.368263,0.0437 0.605111,0.19599 0.791016,0.41211 0.185904,0.21613 0.314575,0.50027 0.429687,0.79688 a 0.13251324,0.13251324 0 0 0 0.253906,-0.0332 c 0.04954,-0.4867 0.152966,-0.76804 0.3125,-0.95508 0.159535,-0.18703 0.392006,-0.29714 0.736328,-0.4082 a 0.13251324,0.13251324 0 0 0 -0.04297,-0.25976 c -0.381192,0.005 -0.606629,-0.10521 -0.794922,-0.30079 -0.188293,-0.19557 -0.332321,-0.48781 -0.490235,-0.83203 a 0.13251324,0.13251324 0 0 0 -0.15039,-0.0742 z m 0.07227,0.45899 c 0.112675,0.22637 0.215891,0.46357 0.376954,0.63086 0.16248,0.16876 0.434953,0.21306 0.695312,0.26953 -0.223069,0.0932 -0.456783,0.17173 -0.603516,0.34375 -0.14932,0.17506 -0.203226,0.48569 -0.267578,0.78906 -0.09353,-0.20835 -0.174696,-0.42351 -0.326172,-0.59961 -0.166074,-0.19307 -0.442826,-0.28886 -0.722656,-0.37695 0.268754,-0.10866 0.534806,-0.21865 0.677735,-0.41602 0.124693,-0.17218 0.13468,-0.41418 0.169921,-0.64062 z"
           id="path474" />
      </g>
    </g>
    <g
       id="g476"
       style="fill:#5f8abc;fill-opacity:1"
       transform="rotate(23.470191,-159.44906,446.58933)">
      <path
         style="color:#000000;fill:#5f8abc;fill-opacity:1;stroke-linejoin:round;stroke-miterlimit:9.3;-inkscape-stroke:none"
         d="m 69.091815,135.72977 c 0.007,0.72738 -0.27771,1.1902 -1.05938,1.39318 0.79754,0.0947 1.09574,0.69268 1.32902,1.29376 0.10179,-1.00011 0.4342,-1.24853 1.13812,-1.47557 -0.82008,0.0116 -1.09076,-0.52037 -1.40776,-1.21137 z"
         id="path475" />
      <path
         style="color:#000000;fill:#5f8abc;fill-opacity:1;stroke-linejoin:round;stroke-miterlimit:9.3;-inkscape-stroke:none"
         d="m 69.0625,135.59961 a 0.13251324,0.13251324 0 0 0 -0.103516,0.13086 c 0.0033,0.34613 -0.06237,0.612 -0.208984,0.81445 -0.146615,0.20246 -0.37909,0.3529 -0.75,0.44922 a 0.13251324,0.13251324 0 0 0 0.01758,0.25977 c 0.368263,0.0437 0.605112,0.19598 0.791016,0.41211 0.185904,0.21612 0.314575,0.50222 0.429687,0.79882 a 0.13251324,0.13251324 0 0 0 0.25586,-0.0352 c 0.04954,-0.4867 0.151012,-0.76805 0.310546,-0.95508 0.159535,-0.18703 0.392006,-0.29715 0.736329,-0.4082 a 0.13251324,0.13251324 0 0 0 -0.04297,-0.25782 c -0.381192,0.005 -0.606629,-0.1052 -0.794922,-0.30078 -0.188293,-0.19557 -0.332321,-0.48976 -0.490234,-0.83398 a 0.13251324,0.13251324 0 0 0 -0.150391,-0.0742 z m 0.07227,0.46094 c 0.112674,0.22636 0.21589,0.46357 0.376953,0.63086 0.16193,0.16819 0.434249,0.21084 0.693359,0.26757 -0.222344,0.0931 -0.455188,0.17215 -0.601562,0.34375 -0.149653,0.17545 -0.203246,0.48663 -0.267579,0.79102 -0.09353,-0.20836 -0.174696,-0.42351 -0.326171,-0.59961 -0.166074,-0.19307 -0.442827,-0.28886 -0.722657,-0.37695 0.268754,-0.10866 0.534806,-0.21865 0.677735,-0.41602 0.124693,-0.17218 0.13468,-0.41418 0.169922,-0.64062 z"
         id="path476" />
    </g>
    <path
       style="fill:#8dc994;fill-opacity:1;stroke:none;stroke-width:0.795367px;stroke-linecap:butt;stroke-linejoin:miter;stroke-opacity:1"
       d="m 107.58271,157.14245 c 0.0203,0.0324 -0.12055,-0.40576 -0.0991,-0.58941 0.0214,-0.18378 0.20639,-0.11295 0.2707,-0.0874 0.1286,0.0513 0.0702,0.7094 0.13672,0.74385 1.5513,1.8233 1.33754,2.79322 2.43654,4.01513 0.28681,0.31912 0.68979,1.01438 0.88239,1.45697 0.11348,0.26071 1.01453,1.06352 1.12745,1.25411 0.27507,0.46424 1.16142,0.87012 1.22211,1.65111 0.0159,0.21125 -1.21948,-0.32565 -1.43033,-0.41293 -0.97091,-0.40184 -0.90435,-0.6794 -1.42937,-1.01757 -0.19163,-0.12351 -1.43429,-1.86182 -1.55576,-2.26891 -0.10866,-0.36437 -0.37762,-0.92516 -0.62847,-1.223 -0.55201,-0.65532 -1.34491,-3.18389 -0.93336,-3.52185 z m -3.08748,10.29153 c 0.0382,-0.001 -0.41167,-0.0985 -0.55999,-0.20888 -0.14846,-0.11042 0.005,-0.23521 0.0597,-0.27813 0.10873,-0.0857 0.64946,0.2939 0.71255,0.25352 2.35468,-0.43182 3.08777,0.23827 4.69548,-0.10254 0.41977,-0.0888 1.22337,-0.0902 1.70296,-0.0357 0.28253,0.0321 1.4283,-0.34685 1.64982,-0.34934 0.53958,-0.006 1.33426,-0.57076 2.04096,-0.23283 0.1909,0.0919 -0.89176,0.89328 -1.07277,1.03224 -0.83346,0.63991 -1.04056,0.44349 -1.59593,0.72909 -0.20278,0.1042 -2.32953,0.31122 -2.74282,0.21287 -0.36988,-0.0881 -0.99002,-0.13555 -1.37338,-0.0672 -0.84353,0.15039 -3.42978,-0.42722 -3.51669,-0.95261 z m 7.36899,7.8196 c 0.0179,-0.0338 -0.29112,0.30728 -0.46089,0.38053 -0.16986,0.0734 -0.20101,-0.12226 -0.21104,-0.19073 -0.0199,-0.13702 0.57926,-0.4155 0.57583,-0.49033 0.80338,-2.25512 1.75023,-2.55495 2.25894,-4.11767 0.13296,-0.40795 0.53358,-1.10457 0.82057,-1.49266 0.16905,-0.22863 0.41377,-1.41037 0.52237,-1.60345 0.26451,-0.47034 0.17284,-1.44088 0.81885,-1.88394 0.175,-0.11939 0.32772,1.21893 0.35756,1.44517 0.13745,1.04175 -0.13621,1.12289 -0.16656,1.74666 -0.0112,0.22771 -0.89524,2.17304 -1.18706,2.48178 -0.26122,0.27629 -0.6124,0.78961 -0.74491,1.15577 -0.29152,0.80571 -2.08487,2.75667 -2.58333,2.56924 z m 10.45647,-2.47193 c -0.0203,-0.0324 0.12055,0.40576 0.0991,0.58941 -0.0214,0.18378 -0.20639,0.11295 -0.2707,0.0874 -0.1286,-0.0513 -0.0702,-0.7094 -0.13672,-0.74385 -1.5513,-1.8233 -1.33754,-2.79322 -2.43654,-4.01513 -0.28681,-0.31912 -0.68979,-1.01438 -0.88239,-1.45697 -0.11348,-0.26071 -1.01453,-1.06352 -1.12745,-1.25411 -0.27507,-0.46424 -1.16142,-0.87012 -1.22211,-1.65111 -0.0159,-0.21125 1.21948,0.32565 1.43033,0.41293 0.97091,0.40184 0.90435,0.6794 1.42937,1.01757 0.19163,0.12351 1.43429,1.86182 1.55576,2.26891 0.10866,0.36437 0.37762,0.92516 0.62847,1.223 0.55201,0.65532 1.34491,3.18389 0.93336,3.52185 z m 3.08748,-10.29153 c -0.0382,0.001 0.41167,0.0985 0.55999,0.20888 0.14846,0.11042 -0.005,0.23521 -0.0597,0.27813 -0.10873,0.0857 -0.64946,-0.2939 -0.71255,-0.25352 -2.35468,0.43182 -3.08777,-0.23827 -4.69548,0.10254 -0.41977,0.0888 -1.22337,0.0902 -1.70296,0.0357 -0.28253,-0.0321 -1.4283,0.34685 -1.64982,0.34934 -0.53958,0.006 -1.33426,0.57076 -2.04096,0.23283 -0.1909,-0.0919 0.89176,-0.89328 1.07277,-1.03224 0.83346,-0.63991 1.04056,-0.44349 1.59593,-0.72909 0.20278,-0.1042 2.32953,-0.31122 2.74282,-0.21287 0.36988,0.0881 0.99002,0.13555 1.37338,0.0672 0.84353,-0.15039 3.42978,0.42722 3.51669,0.95261 z m -7.36899,-7.8196 c -0.0179,0.0338 0.29112,-0.30728 0.46089,-0.38053 0.16986,-0.0734 0.20101,0.12226 0.21104,0.19073 0.0199,0.13702 -0.57926,0.4155 -0.57583,0.49033 -0.80338,2.25512 -1.75023,2.55495 -2.25894,4.11767 -0.13296,0.40795 -0.53358,1.10457 -0.82057,1.49266 -0.16905,0.22863 -0.41377,1.41037 -0.52237,1.60345 -0.26451,0.47034 -0.17284,1.44088 -0.81885,1.88394 -0.175,0.11939 -0.32772,-1.21893 -0.35756,-1.44517 -0.13745,-1.04175 0.13621,-1.12289 0.16656,-1.74666 0.0112,-0.22771 0.89524,-2.17304 1.18706,-2.48178 0.26122,-0.27629 0.6124,-0.78961 0.74491,-1.15577 0.29152,-0.80571 2.08487,-2.75667 2.58333,-2.56924 z"
       id="path477"
       sodipodi:nodetypes="cssccssssssscc"
       transform="matrix(0.31100731,-0.11804218,0.11804218,0.31100731,130.5484,215.86442)"
       inkscape:original-d="m 107.58271,157.14245 c 0.0203,0.0324 -0.12055,-0.40576 -0.0991,-0.58941 0.0214,-0.18378 0.20639,-0.11295 0.2707,-0.0874 0.1286,0.0513 0.0702,0.7094 0.13672,0.74385 1.5513,1.8233 1.33754,2.79322 2.43654,4.01513 0.28681,0.31912 0.68979,1.01438 0.88239,1.45697 0.11348,0.26071 1.01453,1.06352 1.12745,1.25411 0.27507,0.46424 1.16142,0.87012 1.22211,1.65111 0.0159,0.21125 -1.21948,-0.32565 -1.43033,-0.41293 -0.97091,-0.40184 -0.90435,-0.6794 -1.42937,-1.01757 -0.19163,-0.12351 -1.43429,-1.86182 -1.55576,-2.26891 -0.10866,-0.36437 -0.37762,-0.92516 -0.62847,-1.223 -0.55201,-0.65532 -1.34491,-3.18389 -0.93336,-3.52185 z"
       inkscape:path-effect="#path-effect495"
       clip-path="url(#clipPath751)" />
    <g
       id="g481"
       transform="matrix(0.5018926,0.04096053,-0.04096053,0.5018926,57.535927,171.1206)"
       style="stroke-width:1.98586">
      <path
         style="fill:#ffcbce;fill-opacity:1;stroke:none;stroke-width:0.526252;stroke-linecap:butt;stroke-linejoin:miter;stroke-dasharray:none;stroke-opacity:0"
         d="m 160.06874,157.33208 c -0.65485,0.87359 -1.2252,1.26081 -2.40462,1.32328 -1.17942,0.0625 -2.13999,-0.0292 -3.59503,-0.97138 -1.45504,-0.94216 -3.90736,-3.75117 -2.62671,-6.34068 0.76302,-1.54285 3.08837,-1.4446 4.14929,-0.33484 0.50262,0.52577 0.81642,1.87335 1.45213,2.13984 0.97371,0.40818 1.42738,-0.22151 2.55055,0.66936 1.12317,0.89089 1.12923,2.64082 0.47439,3.51442 z"
         id="path478"
         sodipodi:nodetypes="zzzssszz" />
      <g
         id="g480"
         style="fill:#501627;fill-opacity:1;stroke-width:1.98586"
         transform="translate(58.472914,-3.1750001)">
        <path
           style="color:#000000;fill:#501627;fill-opacity:1;stroke-width:1.98586;stroke-linejoin:round;stroke-miterlimit:9.3;-inkscape-stroke:none"
           d="m 97.40223,155.8381 c 0.007,0.72738 -0.27771,1.1902 -1.05938,1.39318 0.79754,0.0947 1.09574,0.69268 1.32902,1.29376 0.10179,-1.00011 0.4342,-1.24853 1.13812,-1.47557 -0.82008,0.0116 -1.09076,-0.52037 -1.40776,-1.21137 z"
           id="path479" />
        <path
           style="color:#000000;fill:#501627;fill-opacity:1;stroke-width:1.98586;stroke-linejoin:round;stroke-miterlimit:9.3;-inkscape-stroke:none"
           d="m 97.373047,155.70898 a 0.13251324,0.13251324 0 0 0 -0.103516,0.13086 c 0.0033,0.34614 -0.06237,0.612 -0.208984,0.81446 -0.146615,0.20245 -0.381043,0.3529 -0.751953,0.44922 a 0.13251324,0.13251324 0 0 0 0.01953,0.25976 c 0.368263,0.0437 0.605111,0.19599 0.791016,0.41211 0.185904,0.21613 0.314575,0.50027 0.429687,0.79688 a 0.13251324,0.13251324 0 0 0 0.253906,-0.0332 c 0.04954,-0.4867 0.152966,-0.76804 0.3125,-0.95508 0.159535,-0.18703 0.392006,-0.29714 0.736328,-0.4082 a 0.13251324,0.13251324 0 0 0 -0.04297,-0.25976 c -0.381192,0.005 -0.606629,-0.10521 -0.794922,-0.30079 -0.188293,-0.19557 -0.332321,-0.48781 -0.490235,-0.83203 a 0.13251324,0.13251324 0 0 0 -0.15039,-0.0742 z m 0.07227,0.45899 c 0.112675,0.22637 0.215891,0.46357 0.376954,0.63086 0.16248,0.16876 0.434953,0.21306 0.695312,0.26953 -0.223069,0.0932 -0.456783,0.17173 -0.603516,0.34375 -0.14932,0.17506 -0.203226,0.48569 -0.267578,0.78906 -0.09353,-0.20835 -0.174696,-0.42351 -0.326172,-0.59961 -0.166074,-0.19307 -0.442826,-0.28886 -0.722656,-0.37695 0.268754,-0.10866 0.534806,-0.21865 0.677735,-0.41602 0.124693,-0.17218 0.13468,-0.41418 0.169921,-0.64062 z"
           id="path480" />
      </g>
    </g>
    <g
       id="g484"
       transform="matrix(0.04096053,-0.5018926,0.5018926,0.04096053,41.036165,331.88982)"
       style="stroke-width:1.98586"
       clip-path="url(#clipPath747)">
      <path
         style="fill:#ffcbce;fill-opacity:1;stroke:none;stroke-width:0.526252;stroke-linecap:butt;stroke-linejoin:miter;stroke-dasharray:none;stroke-opacity:0"
         d="m 160.06874,157.33208 c -0.65485,0.87359 -1.2252,1.26081 -2.40462,1.32328 -1.17942,0.0625 -2.13999,-0.0292 -3.59503,-0.97138 -1.45504,-0.94216 -3.90736,-3.75117 -2.62671,-6.34068 0.76302,-1.54285 3.08837,-1.4446 4.14929,-0.33484 0.50262,0.52577 0.81642,1.87335 1.45213,2.13984 0.97371,0.40818 1.42738,-0.22151 2.55055,0.66936 1.12317,0.89089 1.12923,2.64082 0.47439,3.51442 z"
         id="path481"
         sodipodi:nodetypes="zzzssszz" />
      <g
         id="g483"
         style="fill:#501627;fill-opacity:1;stroke-width:1.98586"
         transform="translate(58.472914,-3.1750001)">
        <path
           style="color:#000000;fill:#501627;fill-opacity:1;stroke-width:1.98586;stroke-linejoin:round;stroke-miterlimit:9.3;-inkscape-stroke:none"
           d="m 97.40223,155.8381 c 0.007,0.72738 -0.27771,1.1902 -1.05938,1.39318 0.79754,0.0947 1.09574,0.69268 1.32902,1.29376 0.10179,-1.00011 0.4342,-1.24853 1.13812,-1.47557 -0.82008,0.0116 -1.09076,-0.52037 -1.40776,-1.21137 z"
           id="path482" />
        <path
           style="color:#000000;fill:#501627;fill-opacity:1;stroke-width:1.98586;stroke-linejoin:round;stroke-miterlimit:9.3;-inkscape-stroke:none"
           d="m 97.373047,155.70898 a 0.13251324,0.13251324 0 0 0 -0.103516,0.13086 c 0.0033,0.34614 -0.06237,0.612 -0.208984,0.81446 -0.146615,0.20245 -0.381043,0.3529 -0.751953,0.44922 a 0.13251324,0.13251324 0 0 0 0.01953,0.25976 c 0.368263,0.0437 0.605111,0.19599 0.791016,0.41211 0.185904,0.21613 0.314575,0.50027 0.429687,0.79688 a 0.13251324,0.13251324 0 0 0 0.253906,-0.0332 c 0.04954,-0.4867 0.152966,-0.76804 0.3125,-0.95508 0.159535,-0.18703 0.392006,-0.29714 0.736328,-0.4082 a 0.13251324,0.13251324 0 0 0 -0.04297,-0.25976 c -0.381192,0.005 -0.606629,-0.10521 -0.794922,-0.30079 -0.188293,-0.19557 -0.332321,-0.48781 -0.490235,-0.83203 a 0.13251324,0.13251324 0 0 0 -0.15039,-0.0742 z m 0.07227,0.45899 c 0.112675,0.22637 0.215891,0.46357 0.376954,0.63086 0.16248,0.16876 0.434953,0.21306 0.695312,0.26953 -0.223069,0.0932 -0.456783,0.17173 -0.603516,0.34375 -0.14932,0.17506 -0.203226,0.48569 -0.267578,0.78906 -0.09353,-0.20835 -0.174696,-0.42351 -0.326172,-0.59961 -0.166074,-0.19307 -0.442826,-0.28886 -0.722656,-0.37695 0.268754,-0.10866 0.534806,-0.21865 0.677735,-0.41602 0.124693,-0.17218 0.13468,-0.41418 0.169921,-0.64062 z"
           id="path483" />
      </g>
    </g>
    <path
       style="fill:#8dc994;fill-opacity:1;stroke:none;stroke-width:0.795367px;stroke-linecap:butt;stroke-linejoin:miter;stroke-opacity:1"
       d="m 107.58271,157.14245 c 0.0203,0.0324 -0.12055,-0.40576 -0.0991,-0.58941 0.0214,-0.18378 0.20639,-0.11295 0.2707,-0.0874 0.1286,0.0513 0.0702,0.7094 0.13672,0.74385 1.5513,1.8233 1.33754,2.79322 2.43654,4.01513 0.28681,0.31912 0.68979,1.01438 0.88239,1.45697 0.11348,0.26071 1.01453,1.06352 1.12745,1.25411 0.27507,0.46424 1.16142,0.87012 1.22211,1.65111 0.0159,0.21125 -1.21948,-0.32565 -1.43033,-0.41293 -0.97091,-0.40184 -0.90435,-0.6794 -1.42937,-1.01757 -0.19163,-0.12351 -1.43429,-1.86182 -1.55576,-2.26891 -0.10866,-0.36437 -0.37762,-0.92516 -0.62847,-1.223 -0.55201,-0.65532 -1.34491,-3.18389 -0.93336,-3.52185 z m -3.08748,10.29153 c 0.0382,-0.001 -0.41167,-0.0985 -0.55999,-0.20888 -0.14846,-0.11042 0.005,-0.23521 0.0597,-0.27813 0.10873,-0.0857 0.64946,0.2939 0.71255,0.25352 2.35468,-0.43182 3.08777,0.23827 4.69548,-0.10254 0.41977,-0.0888 1.22337,-0.0902 1.70296,-0.0357 0.28253,0.0321 1.4283,-0.34685 1.64982,-0.34934 0.53958,-0.006 1.33426,-0.57076 2.04096,-0.23283 0.1909,0.0919 -0.89176,0.89328 -1.07277,1.03224 -0.83346,0.63991 -1.04056,0.44349 -1.59593,0.72909 -0.20278,0.1042 -2.32953,0.31122 -2.74282,0.21287 -0.36988,-0.0881 -0.99002,-0.13555 -1.37338,-0.0672 -0.84353,0.15039 -3.42978,-0.42722 -3.51669,-0.95261 z m 7.36899,7.8196 c 0.0179,-0.0338 -0.29112,0.30728 -0.46089,0.38053 -0.16986,0.0734 -0.20101,-0.12226 -0.21104,-0.19073 -0.0199,-0.13702 0.57926,-0.4155 0.57583,-0.49033 0.80338,-2.25512 1.75023,-2.55495 2.25894,-4.11767 0.13296,-0.40795 0.53358,-1.10457 0.82057,-1.49266 0.16905,-0.22863 0.41377,-1.41037 0.52237,-1.60345 0.26451,-0.47034 0.17284,-1.44088 0.81885,-1.88394 0.175,-0.11939 0.32772,1.21893 0.35756,1.44517 0.13745,1.04175 -0.13621,1.12289 -0.16656,1.74666 -0.0112,0.22771 -0.89524,2.17304 -1.18706,2.48178 -0.26122,0.27629 -0.6124,0.78961 -0.74491,1.15577 -0.29152,0.80571 -2.08487,2.75667 -2.58333,2.56924 z m 10.45647,-2.47193 c -0.0203,-0.0324 0.12055,0.40576 0.0991,0.58941 -0.0214,0.18378 -0.20639,0.11295 -0.2707,0.0874 -0.1286,-0.0513 -0.0702,-0.7094 -0.13672,-0.74385 -1.5513,-1.8233 -1.33754,-2.79322 -2.43654,-4.01513 -0.28681,-0.31912 -0.68979,-1.01438 -0.88239,-1.45697 -0.11348,-0.26071 -1.01453,-1.06352 -1.12745,-1.25411 -0.27507,-0.46424 -1.16142,-0.87012 -1.22211,-1.65111 -0.0159,-0.21125 1.21948,0.32565 1.43033,0.41293 0.97091,0.40184 0.90435,0.6794 1.42937,1.01757 0.19163,0.12351 1.43429,1.86182 1.55576,2.26891 0.10866,0.36437 0.37762,0.92516 0.62847,1.223 0.55201,0.65532 1.34491,3.18389 0.93336,3.52185 z m 3.08748,-10.29153 c -0.0382,0.001 0.41167,0.0985 0.55999,0.20888 0.14846,0.11042 -0.005,0.23521 -0.0597,0.27813 -0.10873,0.0857 -0.64946,-0.2939 -0.71255,-0.25352 -2.35468,0.43182 -3.08777,-0.23827 -4.69548,0.10254 -0.41977,0.0888 -1.22337,0.0902 -1.70296,0.0357 -0.28253,-0.0321 -1.4283,0.34685 -1.64982,0.34934 -0.53958,0.006 -1.33426,0.57076 -2.04096,0.23283 -0.1909,-0.0919 0.89176,-0.89328 1.07277,-1.03224 0.83346,-0.63991 1.04056,-0.44349 1.59593,-0.72909 0.20278,-0.1042 2.32953,-0.31122 2.74282,-0.21287 0.36988,0.0881 0.99002,0.13555 1.37338,0.0672 0.84353,-0.15039 3.42978,0.42722 3.51669,0.95261 z m -7.36899,-7.8196 c -0.0179,0.0338 0.29112,-0.30728 0.46089,-0.38053 0.16986,-0.0734 0.20101,0.12226 0.21104,0.19073 0.0199,0.13702 -0.57926,0.4155 -0.57583,0.49033 -0.80338,2.25512 -1.75023,2.55495 -2.25894,4.11767 -0.13296,0.40795 -0.53358,1.10457 -0.82057,1.49266 -0.16905,0.22863 -0.41377,1.41037 -0.52237,1.60345 -0.26451,0.47034 -0.17284,1.44088 -0.81885,1.88394 -0.175,0.11939 -0.32772,-1.21893 -0.35756,-1.44517 -0.13745,-1.04175 0.13621,-1.12289 0.16656,-1.74666 0.0112,-0.22771 0.89524,-2.17304 1.18706,-2.48178 0.26122,-0.27629 0.6124,-0.78961 0.74491,-1.15577 0.29152,-0.80571 2.08487,-2.75667 2.58333,-2.56924 z"
       id="path448"
       sodipodi:nodetypes="cssccssssssscc"
       transform="matrix(0.31729693,0.09991078,-0.09991078,0.31729693,116.7163,197.93504)"
       inkscape:original-d="m 107.58271,157.14245 c 0.0203,0.0324 -0.12055,-0.40576 -0.0991,-0.58941 0.0214,-0.18378 0.20639,-0.11295 0.2707,-0.0874 0.1286,0.0513 0.0702,0.7094 0.13672,0.74385 1.5513,1.8233 1.33754,2.79322 2.43654,4.01513 0.28681,0.31912 0.68979,1.01438 0.88239,1.45697 0.11348,0.26071 1.01453,1.06352 1.12745,1.25411 0.27507,0.46424 1.16142,0.87012 1.22211,1.65111 0.0159,0.21125 -1.21948,-0.32565 -1.43033,-0.41293 -0.97091,-0.40184 -0.90435,-0.6794 -1.42937,-1.01757 -0.19163,-0.12351 -1.43429,-1.86182 -1.55576,-2.26891 -0.10866,-0.36437 -0.37762,-0.92516 -0.62847,-1.223 -0.55201,-0.65532 -1.34491,-3.18389 -0.93336,-3.52185 z"
       inkscape:path-effect="#path-effect489"
       clip-path="url(#clipPath746)" />
  </g>
</svg>
