<?xml version="1.0" encoding="UTF-8" standalone="no"?>
<!-- Created with Inkscape (http://www.inkscape.org/) -->

<svg
   width="9.4266529mm"
   height="8.4915524mm"
   viewBox="0 0 9.4266529 8.4915524"
   version="1.1"
   id="svg1"
   inkscape:version="1.3.2 (091e20e, 2023-11-25, custom)"
   sodipodi:docname="cansat logo.svg"
   xmlns:inkscape="http://www.inkscape.org/namespaces/inkscape"
   xmlns:sodipodi="http://sodipodi.sourceforge.net/DTD/sodipodi-0.dtd"
   xmlns="http://www.w3.org/2000/svg"
   xmlns:svg="http://www.w3.org/2000/svg">
  <sodipodi:namedview
     id="namedview1"
     pagecolor="#ffffff"
     bordercolor="#666666"
     borderopacity="1.0"
     inkscape:showpageshadow="2"
     inkscape:pageopacity="0.0"
     inkscape:pagecheckerboard="0"
     inkscape:deskcolor="#d1d1d1"
     inkscape:document-units="mm"
     inkscape:zoom="16.000001"
     inkscape:cx="307.37499"
     inkscape:cy="644.59372"
     inkscape:window-width="1386"
     inkscape:window-height="1041"
     inkscape:window-x="525"
     inkscape:window-y="0"
     inkscape:window-maximized="0"
     inkscape:current-layer="layer1" />
  <defs
     id="defs1">
    <inkscape:path-effect
       effect="powermask"
       id="path-effect303"
       is_visible="true"
       lpeversion="1"
       uri="#mask-powermask-path-effect303"
       invert="false"
       hide_mask="false"
       background="true"
       background_color="#ffffffff" />
    <mask
       maskUnits="userSpaceOnUse"
       id="mask-powermask-path-effect303">
      <path
         id="mask-powermask-path-effect303_box"
         style="fill:#ffffff;fill-opacity:1"
         d="m 87.046986,139.38959 h 11.426656 v 10.49156 H 87.046986 Z" />
      <path
         id="path303"
         style="fill:#ffffff;fill-opacity:1"
         d="m 87.046986,139.38959 h 11.426656 v 10.49156 H 87.046986 Z" />
      <g
         id="g305"
         style="fill:#000000;fill-opacity:1;stroke-width:0.999999"
         transform="translate(-4.5640622,-12.964583)">
        <path
           style="color:#000000;fill:#000000;fill-opacity:1;stroke-width:0.999999;stroke-linejoin:round;stroke-miterlimit:9.3;-inkscape-stroke:none"
           d="m 97.40223,155.8381 c 0.007,0.72738 -0.27771,1.1902 -1.05938,1.39318 0.79754,0.0947 1.09574,0.69268 1.32902,1.29376 0.10179,-1.00011 0.4342,-1.24853 1.13812,-1.47557 -0.82008,0.0116 -1.09076,-0.52037 -1.40776,-1.21137 z"
           id="path304" />
        <path
           style="color:#000000;fill:#000000;fill-opacity:1;stroke-width:0.999999;stroke-linejoin:round;stroke-miterlimit:9.3;-inkscape-stroke:none"
           d="m 97.373047,155.70898 a 0.13251324,0.13251324 0 0 0 -0.103516,0.13086 c 0.0033,0.34614 -0.06237,0.612 -0.208984,0.81446 -0.146615,0.20245 -0.381043,0.3529 -0.751953,0.44922 a 0.13251324,0.13251324 0 0 0 0.01953,0.25976 c 0.368263,0.0437 0.605111,0.19599 0.791016,0.41211 0.185904,0.21613 0.314575,0.50027 0.429687,0.79688 a 0.13251324,0.13251324 0 0 0 0.253906,-0.0332 c 0.04954,-0.4867 0.152966,-0.76804 0.3125,-0.95508 0.159535,-0.18703 0.392006,-0.29714 0.736328,-0.4082 a 0.13251324,0.13251324 0 0 0 -0.04297,-0.25976 c -0.381192,0.005 -0.606629,-0.10521 -0.794922,-0.30079 -0.188293,-0.19557 -0.332321,-0.48781 -0.490235,-0.83203 a 0.13251324,0.13251324 0 0 0 -0.15039,-0.0742 z m 0.07227,0.45899 c 0.112675,0.22637 0.215891,0.46357 0.376954,0.63086 0.16248,0.16876 0.434953,0.21306 0.695312,0.26953 -0.223069,0.0932 -0.456783,0.17173 -0.603516,0.34375 -0.14932,0.17506 -0.203226,0.48569 -0.267578,0.78906 -0.09353,-0.20835 -0.174696,-0.42351 -0.326172,-0.59961 -0.166074,-0.19307 -0.442826,-0.28886 -0.722656,-0.37695 0.268754,-0.10866 0.534806,-0.21865 0.677735,-0.41602 0.124693,-0.17218 0.13468,-0.41418 0.169921,-0.64062 z"
           id="path305" />
      </g>
    </mask>
  </defs>
  <g
     inkscape:label="Layer 1"
     inkscape:groupmode="layer"
     id="layer1"
     transform="translate(-111.26317,-129.3233)">
    <path
       style="fill:#501627;fill-opacity:1;stroke:none;stroke-width:0.265;stroke-linecap:butt;stroke-linejoin:miter;stroke-dasharray:none;stroke-opacity:0"
       d="m 97.031768,147.5425 c -0.65485,0.87359 -1.2252,1.26081 -2.40462,1.32328 -1.17942,0.0625 -2.13999,-0.0292 -3.59503,-0.97138 -1.45504,-0.94216 -3.90736,-3.75117 -2.62671,-6.34068 0.76302,-1.54285 3.08837,-1.4446 4.14929,-0.33484 0.50262,0.52577 0.81642,1.87335 1.45213,2.13984 0.97371,0.40818 1.42738,-0.22151 2.55055,0.66936 1.12317,0.89089 1.12923,2.64082 0.47439,3.51442 z"
       id="path302"
       sodipodi:nodetypes="zzzssszz"
       mask="url(#mask-powermask-path-effect303)"
       inkscape:path-effect="#path-effect303"
       inkscape:original-d="m 97.031768,147.5425 c -0.65485,0.87359 -1.2252,1.26081 -2.40462,1.32328 -1.17942,0.0625 -2.13999,-0.0292 -3.59503,-0.97138 -1.45504,-0.94216 -3.90736,-3.75117 -2.62671,-6.34068 0.76302,-1.54285 3.08837,-1.4446 4.14929,-0.33484 0.50262,0.52577 0.81642,1.87335 1.45213,2.13984 0.97371,0.40818 1.42738,-0.22151 2.55055,0.66936 1.12317,0.89089 1.12923,2.64082 0.47439,3.51442 z"
       transform="translate(23.216184,-11.066298)"
       inkscape:export-filename="BeanSat\BeanSat.github.io\images\main logo icon.svg"
       inkscape:export-xdpi="345"
       inkscape:export-ydpi="345" />
  </g>
</svg>
