<?xml version="1.0" encoding="UTF-8" standalone="no"?>
<!-- Created with Inkscape (http://www.inkscape.org/) -->

<svg
   width="33.3806mm"
   height="10.56901mm"
   viewBox="0 0 33.3806 10.56901"
   version="1.1"
   id="svg1"
   inkscape:version="1.3.2 (091e20e, 2023-11-25, custom)"
   sodipodi:docname="cansat logo.svg"
   xmlns:inkscape="http://www.inkscape.org/namespaces/inkscape"
   xmlns:sodipodi="http://sodipodi.sourceforge.net/DTD/sodipodi-0.dtd"
   xmlns="http://www.w3.org/2000/svg"
   xmlns:svg="http://www.w3.org/2000/svg">
  <sodipodi:namedview
     id="namedview1"
     pagecolor="#ffffff"
     bordercolor="#666666"
     borderopacity="1.0"
     inkscape:showpageshadow="2"
     inkscape:pageopacity="0.0"
     inkscape:pagecheckerboard="0"
     inkscape:deskcolor="#d1d1d1"
     inkscape:document-units="mm"
     inkscape:zoom="2.0000001"
     inkscape:cx="462.74998"
     inkscape:cy="553.74997"
     inkscape:window-width="1281"
     inkscape:window-height="1041"
     inkscape:window-x="630"
     inkscape:window-y="0"
     inkscape:window-maximized="0"
     inkscape:current-layer="layer1" />
  <defs
     id="defs1" />
  <g
     inkscape:label="Layer 1"
     inkscape:groupmode="layer"
     id="layer1"
     transform="translate(-144.15723,-178.03829)">
    <g
       id="g372"
       transform="translate(14.873548,26.893995)">
      <rect
         style="fill:#501627;fill-opacity:1;stroke:none;stroke-width:0.264999;stroke-linecap:square;stroke-linejoin:round;stroke-miterlimit:9.3;stroke-dasharray:none;stroke-dashoffset:6.04726;stroke-opacity:0;paint-order:stroke markers fill"
         id="rect369"
         width="5.8572474"
         height="4.127058"
         x="40.027271"
         y="227.93835"
         transform="rotate(-30,-49.388924,24.600823)" />
      <ellipse
         style="fill:#501627;fill-opacity:1;stroke:none;stroke-width:0.264999;stroke-linecap:square;stroke-linejoin:round;stroke-miterlimit:9.3;stroke-dasharray:none;stroke-dashoffset:6.04726;stroke-opacity:0;paint-order:stroke markers fill"
         id="ellipse369"
         cx="40.027271"
         cy="230.00189"
         rx="0.86509526"
         ry="2.063529"
         transform="rotate(-30,-49.388924,24.600823)" />
      <path
         style="fill:#faf6f6;fill-opacity:1;stroke:none;stroke-width:0.265;stroke-linecap:butt;stroke-linejoin:miter;stroke-dasharray:none;stroke-opacity:0"
         d="m 98.924767,211.62666 c 0.120925,0.31012 0.256795,0.47048 0.598108,0.58526 0.341307,0.11482 0.630945,0.16644 1.135355,0.009 0.50441,-0.15778 1.45437,-0.78236 1.28992,-1.64767 -0.098,-0.51555 -0.78903,-0.6768 -1.19137,-0.43756 -0.19062,0.11334 -0.39296,0.48349 -0.60148,0.5098 -0.319366,0.0403 -0.40113,-0.18181 -0.803874,-0.0119 -0.402736,0.16986 -0.547578,0.68335 -0.426659,0.9935 z"
         id="path369"
         sodipodi:nodetypes="zzzssszz"
         transform="rotate(-15,-90.727801,61.146189)" />
      <ellipse
         style="fill:#501627;fill-opacity:1;stroke:#faf6f6;stroke-width:0.465;stroke-linecap:square;stroke-linejoin:round;stroke-miterlimit:9.3;stroke-dasharray:none;stroke-dashoffset:6.04726;stroke-opacity:1;paint-order:stroke markers fill"
         id="ellipse370"
         cx="45.884518"
         cy="230.00189"
         rx="0.86509526"
         ry="2.063529"
         transform="rotate(-30,-49.388924,24.600823)" />
      <path
         id="path370"
         d="m 98.133619,206.36483 1.257259,-0.33688 0.217735,0.81259 -1.257259,0.33689 z m 1.430726,-0.38336 1.257255,-0.33688 0.21774,0.8126 -1.25726,0.33687 z m -1.166509,1.36943 1.257259,-0.33688 0.217735,0.8126 -1.25726,0.33688 z m 1.430725,-0.38336 1.257259,-0.33689 0.21774,0.8126 -1.25726,0.33689 z m -1.166509,1.36943 1.257259,-0.33688 0.217739,0.8126 -1.257263,0.33687 z m 1.430728,-0.38336 1.25726,-0.33689 0.21773,0.8126 -1.25726,0.33689 z"
         style="fill:#501627;fill-opacity:1;stroke:none;stroke-width:0.264999;stroke-linecap:square;stroke-linejoin:round;stroke-miterlimit:9.3;stroke-dasharray:none;stroke-dashoffset:6.04726;stroke-opacity:0;paint-order:stroke markers fill"
         transform="rotate(-15,-90.727801,61.146189)" />
      <path
         id="path371"
         d="m 100.13026,213.8164 1.25726,-0.33689 0.21773,0.8126 -1.25726,0.33688 z m 1.43072,-0.38337 1.25726,-0.33688 0.21774,0.8126 -1.25726,0.33688 z m -1.16651,1.36943 1.25726,-0.33688 0.21774,0.8126 -1.25726,0.33688 z m 1.43073,-0.38336 1.25726,-0.33688 0.21774,0.81259 -1.25726,0.33689 z m -1.16651,1.36943 1.25726,-0.33688 0.21774,0.8126 -1.25726,0.33688 z m 1.43073,-0.38336 1.25726,-0.33688 0.21773,0.8126 -1.25726,0.33688 z"
         style="fill:#501627;fill-opacity:1;stroke:none;stroke-width:0.264999;stroke-linecap:square;stroke-linejoin:round;stroke-miterlimit:9.3;stroke-dasharray:none;stroke-dashoffset:6.04726;stroke-opacity:0;paint-order:stroke markers fill"
         transform="rotate(-15,-90.727801,61.146189)" />
      <path
         id="path372"
         style="font-size:3.52777px;line-height:1.25;font-family:Bonbance;-inkscape-font-specification:'Bonbance, Normal';letter-spacing:0px;word-spacing:0px;fill:#501627;fill-opacity:1;stroke-width:0.264582"
         d="m 155.30948,153.34257 c -1.09112,-0.0134 -1.81043,0.50884 -1.81043,1.38179 0,1.69745 2.23043,1.7305 2.23043,2.91872 0,0.37185 -0.32372,0.86439 -0.81664,0.86439 -0.88916,0 -0.75928,-1.01001 -1.23619,-1.01001 -0.16977,0 -0.29126,0.12881 -0.29126,0.31495 0,0.54965 0.40496,1.30955 1.61744,1.30955 0.80827,0 1.68134,-0.33907 1.68134,-1.61623 0,-1.5843 -2.21506,-1.66459 -2.21506,-2.86088 0,-0.29906 0.3881,-0.68775 0.76813,-0.68775 0.98616,0 0.67832,1.1959 1.13907,1.1959 0.1858,0 0.64476,-0.21839 0.47721,-0.76728 -0.24604,-0.80593 -1.11548,-1.03785 -1.54404,-1.04315 z m -14.32122,0.008 c -0.0418,6.3e-4 -0.0843,0.002 -0.12777,0.004 -0.26566,0.009 -0.54774,0.0336 -0.77317,0.0758 -0.0189,0.002 -0.0384,0.008 -0.0558,0.009 -0.0351,0.008 -0.0694,0.017 -0.1007,0.0233 -0.38665,0.10859 -0.6353,0.26894 -0.6353,0.54382 0,0.36373 0.0906,0.54958 0.0906,1.03456 v 2.66294 c -0.006,0.83232 0.0884,1.17958 0.37654,1.33443 0.18468,0.017 0.40899,0.0635 0.63835,0.0635 0.27484,0 0.40695,0.0204 0.77068,0.0204 0.75173,0 1.79504,-0.38741 1.79504,-1.60794 0,-0.81642 -0.60652,-1.22078 -1.08339,-1.40667 -0.0728,-0.0242 -0.0893,-0.057 -0.008,-0.0971 0.50115,-0.25058 0.96974,-0.63098 0.96974,-1.51206 0,-0.92146 -0.75158,-1.11536 -1.25275,-1.11536 -0.0665,-0.0241 -0.31082,-0.0388 -0.60387,-0.0345 z m 20.52099,0.0733 c -0.33143,0 -0.71047,0.41635 -0.71047,0.772 0,0.27484 -0.0169,0.10992 -0.0169,0.70808 v 3.32959 c 0,0.51734 0.0802,0.88922 0.58139,0.88922 0.67899,0 1.15183,-0.56958 0.99824,-0.74739 -0.13744,-0.16151 -0.56962,0.0531 -0.56962,-0.39168 v -2.2075 c 0,-0.0568 0.0323,-0.0888 0.0888,-0.0888 h 0.12882 c 0.45266,0 0.65476,-0.36413 0.65476,-0.62281 0,-0.0647 -0.0235,-0.11246 -0.11246,-0.11246 -0.097,0 -0.17825,0.0888 -0.43689,0.0888 h -0.23443 c -0.0568,0 -0.0888,-0.0322 -0.0888,-0.0888 v -1.17218 c 0,-0.14562 -6e-5,-0.35644 -0.28295,-0.35644 z m -20.33744,0.63112 c 0.39606,0 0.5494,0.30678 0.5494,0.63819 0,0.69517 -0.71917,1.08288 -1.15566,1.15564 -0.0808,0.009 -0.12912,-0.0239 -0.12912,-0.12093 v -1.07511 c 0.0728,-0.37991 0.48474,-0.59792 0.73533,-0.59792 z m 3.62203,0.90458 c -0.61432,0 -1.48836,0.59902 -1.48836,2.08633 0,1.13167 0.57475,2.11712 1.48008,2.11712 0.9538,0 1.35811,-0.80742 1.35811,-1.31666 0,-0.20212 -0.0652,-0.33986 -0.20249,-0.33986 -0.33947,0 -0.42002,0.75188 -0.92119,0.75188 -0.22633,0 -0.46883,-0.1856 -0.60625,-0.59794 -0.0169,-0.0568 -8.7e-4,-0.10575 0.0558,-0.1303 1.52771,-0.86488 1.63283,-0.87286 1.63283,-1.11537 0,-0.79216 -0.40307,-1.45521 -1.3084,-1.45521 z m 3.19222,0.0404 c -0.77599,0 -1.50374,0.34045 -1.50374,0.78504 0,0.33139 0.14994,0.23127 0.48943,0.23127 0.59006,0 0.47286,-0.45034 0.92549,-0.45034 0.30717,0 0.38009,0.21907 0.38009,0.45349 v 0.4689 c 0,0.0568 -0.0322,0.0887 -0.0888,0.0887 -0.8164,0.0402 -1.74649,0.62154 -1.74649,1.50258 0,0.60626 0.32386,1.04318 0.95437,1.04318 0.39607,0 0.6545,-0.17809 0.78382,-0.33156 0.0406,-0.0485 0.057,-0.0398 0.057,0.017 0.017,0.16169 0.0802,0.31497 0.2984,0.31497 0.33141,0 0.80515,-0.19843 0.80515,-0.55418 0,-0.27482 -0.0769,-0.32661 -0.0769,-0.92474 v -1.53572 c 0,-0.50115 -0.33994,-1.10831 -1.27758,-1.10831 z m 10.66129,0 c -0.77595,0 -1.50257,0.34045 -1.50257,0.78504 0,0.33139 0.16647,0.21355 0.50599,0.21355 0.59005,0 0.4551,-0.43262 0.90777,-0.43262 0.30716,0 0.38008,0.21907 0.38008,0.45349 v 0.4689 c 0,0.0568 -0.0324,0.0887 -0.0888,0.0887 -0.81641,0.0402 -1.74529,0.62154 -1.74529,1.50258 0,0.60626 0.32268,1.04318 0.95317,1.04318 0.39606,0 0.65451,-0.17809 0.78384,-0.33156 0.0403,-0.0485 0.057,-0.0398 0.057,0.017 0.017,0.16169 0.0813,0.31497 0.29957,0.31497 0.3314,0 0.75901,-0.12286 0.75901,-0.47839 0,-0.27486 -0.032,-0.4024 -0.032,-1.00053 v -1.53572 c 0,-0.50115 -0.33996,-1.10831 -1.27759,-1.10831 z m -6.74914,8.7e-4 c -0.45265,0 -0.67918,0.18579 -0.80043,0.32325 -0.0322,0.0403 -0.0559,0.0322 -0.064,-0.0402 -0.0169,-0.12123 -0.0811,-0.24273 -0.27469,-0.24273 -0.33142,0 -0.81635,0.15219 -0.81635,0.50789 0,0.27483 0.0882,0.37294 0.0882,0.97101 v 1.55228 c 0,0.30718 0.0193,0.50068 -0.0193,0.77283 -0.0281,0.19865 0.0888,0.18717 0.11616,0.2372 0.21018,0 0.26176,-0.004 0.42342,-0.004 0.12123,0 0.18858,0.009 0.39855,-1.7e-4 0.10263,-0.004 0.11289,-0.0907 0.11289,-0.23601 0,-0.27482 -0.0207,-0.46241 -0.0207,-0.76957 v -1.90754 c 0,-0.17769 0.11259,-0.43691 0.40377,-0.43691 0.25866,0 0.3552,0.38795 0.3552,0.74358 v 1.60087 c 0,0.30716 -0.0643,0.50608 -0.0643,0.78089 0,0.14563 0.10249,0.20695 0.17894,0.21582 0.2087,0.0244 0.2839,0.0358 0.44556,0.0358 0.1132,0 0.18555,0.003 0.39413,-0.0223 0.20404,-0.0252 0.19889,-0.10339 0.19889,-0.24866 0,-0.27482 -0.1422,-0.4542 -0.1422,-0.76132 v -1.95717 c 0,-0.6224 -0.29168,-1.1154 -0.9141,-1.1154 z m -7.02386,0.52457 c 0.22633,0 0.30667,0.16959 0.30667,0.46059 0,0.38797 -0.30689,0.65464 -0.73529,0.92947 -0.0808,0.0565 -0.12926,0.0333 -0.13744,-0.0559 0.008,-0.52538 0.15378,-1.33442 0.56597,-1.33442 z m -4.33249,0.8679 c 0.50117,-0.017 1.27761,0.22637 1.27761,1.16391 0,0.33141 -0.19352,0.8975 -0.72701,0.8975 -0.58198,0 -0.67964,-0.52532 -0.67964,-0.74357 v -1.17219 c 0,-0.0811 0.032,-0.12956 0.1291,-0.14577 z m 7.64669,0.74121 c 0.0565,0 0.0888,0.0322 0.0888,0.0888 v 0.6548 c 0,0.31523 -0.20193,0.5411 -0.46059,0.5411 -0.16979,0 -0.36469,-0.15327 -0.36469,-0.50086 0,-0.29908 0.12211,-0.74344 0.73649,-0.78382 z m 10.66128,0 c 0.0565,0 0.0888,0.0322 0.0888,0.0888 v 0.6548 c 0,0.31523 -0.20186,0.5411 -0.46058,0.5411 -0.1698,0 -0.36352,-0.15327 -0.36352,-0.50086 0,-0.29908 0.12109,-0.74344 0.73528,-0.78382 z"
         sodipodi:nodetypes="ssssssssssssscccccssccsssccsccccsssscsssssssssscccscsccccsssssccscccssssscssccsssscccssssscssccsssscccccssssccssssssssssssssscccscccccsssscccsssscccsssscc" />
    </g>
  </g>
</svg>
